<?xml version="1.0" encoding="UTF-8"?>
<svg version="1.1" xmlns="http://www.w3.org/2000/svg" width="499" height="499">
<path d="M0 0 C0.66 0 1.32 0 2 0 C2 27.72 2 55.44 2 84 C-5.59 84 -13.18 84 -21 84 C-21.33 78.72 -21.66 73.44 -22 68 C-23.19625 70.083125 -24.3925 72.16625 -25.625 74.3125 C-25.98803223 74.94325439 -26.35106445 75.57400879 -26.72509766 76.22387695 C-29.90364622 81.77352688 -32.93484528 87.38054969 -36 93 C-17.19 93.495 -17.19 93.495 2 94 C2 111.16 2 128.32 2 146 C-1.96 147.98 -1.96 147.98 -6 150 C-8.4645647 151.28157364 -10.9235234 152.56905807 -13.375 153.875 C-14.02637939 154.22159668 -14.67775879 154.56819336 -15.34887695 154.92529297 C-19.02567281 156.89661177 -22.63086227 158.94160365 -26.1875 161.125 C-29.57038959 163.19909952 -32.99232127 165.01812468 -36.5625 166.75 C-41.61856857 169.22300665 -46.42817051 171.9826656 -51.25 174.875 C-57.47960905 178.60620354 -63.79556231 181.98368703 -70.32006836 185.16699219 C-75.43224174 187.67439454 -80.33748668 190.44845257 -85.23046875 193.36328125 C-88.71499657 195.42254381 -92.26288342 197.34713172 -95.82421875 199.26953125 C-98.31528675 200.62690287 -100.79484885 201.99996379 -103.26953125 203.38671875 C-116.78512677 210.9564251 -116.78512677 210.9564251 -123.0625 214 C-127.99073308 216.40617742 -132.67126169 219.12706075 -137.375 221.9375 C-142.75448108 225.13137889 -148.14462158 228.28405178 -153.6875 231.1875 C-154.76386719 231.75855469 -155.84023438 232.32960938 -156.94921875 232.91796875 C-160.64899906 234.23018276 -162.25824933 234.16253134 -166 233 C-168.76955521 231.61687729 -171.3762743 230.01494086 -174 228.375 C-180.4936007 224.42684569 -187.02868116 220.90970997 -193.86328125 217.58203125 C-197.54935409 215.72292851 -201.02513512 213.61667102 -204.53515625 211.44921875 C-207.15619735 209.90816289 -209.82636308 208.57537433 -212.5625 207.25 C-217.7123775 204.72815277 -222.63723241 201.92764449 -227.5625 199 C-238.27905037 192.63321148 -249.2382135 186.81367614 -260.28637695 181.04516602 C-265.8538057 178.13565806 -271.38858956 175.17981371 -276.890625 172.1484375 C-279.56152044 170.69428332 -282.26559479 169.33025119 -285 168 C-285 167.34 -285 166.68 -285 166 C-285.5465625 165.88914062 -286.093125 165.77828125 -286.65625 165.6640625 C-294.80825384 163.35432808 -302.43222412 158.2732925 -309.625 153.90625 C-314.64283391 151.07210307 -319.84550324 148.57724838 -325 146 C-325 98.15 -325 50.3 -325 1 C-322 2 -322 2 -320.640625 4.30078125 C-320.18171875 5.29464844 -319.7228125 6.28851563 -319.25 7.3125 C-317.16795713 11.66726789 -314.9746659 15.85548211 -312.5 20 C-310.17542559 23.91159239 -308.04764141 27.84348207 -306.0625 31.9375 C-303.93263695 36.29377988 -301.57925443 40.39374864 -299 44.5 C-296.56211796 48.38780439 -294.30670497 52.24286358 -292.3125 56.375 C-288.81740906 63.58663392 -284.81396515 70.50529543 -280.8449707 77.46435547 C-277.62819992 83.10589822 -274.46921482 88.77176534 -271.38916016 94.48925781 C-269.94665012 97.09642357 -268.42687479 99.64414255 -266.875 102.1875 C-265.14360856 105.03736136 -263.51638814 107.87442235 -262.0625 110.875 C-259.36878831 116.43078035 -256.12715923 121.6810372 -253 127 C-252.01295838 128.68290596 -251.03284396 130.36991139 -250.0625 132.0625 C-249.66160156 132.75472656 -249.26070313 133.44695312 -248.84765625 134.16015625 C-248 136 -248 136 -248 139 C-247.34 139 -246.68 139 -246 139 C-244.59747038 141.5635981 -243.19750335 144.12854397 -241.80078125 146.6953125 C-240.55323576 148.98473437 -239.30072787 151.27091091 -238.04296875 153.5546875 C-237.41003906 154.71226562 -236.77710938 155.86984375 -236.125 157.0625 C-235.23167969 158.68865234 -235.23167969 158.68865234 -234.3203125 160.34765625 C-233 163 -233 163 -233 165 C-232.28432861 165.27183105 -231.56865723 165.54366211 -230.83129883 165.82373047 C-228.00215006 166.99910675 -225.38307339 168.3449772 -222.69921875 169.8203125 C-221.72275391 170.35527344 -220.74628906 170.89023437 -219.74023438 171.44140625 C-218.73283203 171.99699219 -217.72542969 172.55257812 -216.6875 173.125 C-215.66076172 173.68832031 -214.63402344 174.25164062 -213.57617188 174.83203125 C-211.04937949 176.21882893 -208.52405506 177.60822835 -206 179 C-206 178.34 -206 177.68 -206 177 C-205.34 177 -204.68 177 -204 177 C-203.855625 176.401875 -203.71125 175.80375 -203.5625 175.1875 C-203.1127561 173.43849596 -202.57107659 171.71322977 -202 170 C-201.34 170 -200.68 170 -200 170 C-199.62875 168.6696875 -199.62875 168.6696875 -199.25 167.3125 C-197.92205488 163.79344543 -196.34117219 161.92646524 -194 159 C-191.90871239 155.38125232 -189.94381211 151.69972239 -188 148 C-187.34 148 -186.68 148 -186 148 C-185.87310791 147.4112207 -185.74621582 146.82244141 -185.61547852 146.21582031 C-184.65581137 142.76086634 -182.74363022 139.81948556 -180.9375 136.75 C-180.37192383 135.77546875 -180.37192383 135.77546875 -179.79492188 134.78125 C-178.86765885 133.18494909 -177.93441544 131.59212471 -177 130 C-176.34 130 -175.68 130 -175 130 C-174.89042969 129.43667969 -174.78085938 128.87335938 -174.66796875 128.29296875 C-172.43573506 120.6302718 -166.45767765 113.54425017 -162 107 C-158.23460874 110.48522822 -155.83992351 114.78955566 -153.15966797 119.125 C-152.30982272 120.49906558 -151.45683497 121.8711889 -150.60205078 123.2421875 C-149.083482 125.67899504 -147.57208122 128.12011609 -146.0625 130.5625 C-145.56556641 131.36051025 -145.06863281 132.15852051 -144.55664062 132.98071289 C-143.86538086 134.1059436 -143.86538086 134.1059436 -143.16015625 135.25390625 C-142.53572632 136.26432983 -142.53572632 136.26432983 -141.89868164 137.29516602 C-141 139 -141 139 -141 141 C-140.34 141 -139.68 141 -139 141 C-138.16151196 142.45537568 -137.32936066 143.91440373 -136.5 145.375 C-136.0359375 146.18710937 -135.571875 146.99921875 -135.09375 147.8359375 C-134 150 -134 150 -134 152 C-133.34 152 -132.68 152 -132 152 C-130.5393715 154.64738916 -130 155.89448334 -130 159 C-129.34 159 -128.68 159 -128 159 C-126.76318359 160.62060547 -126.76318359 160.62060547 -125.3984375 162.8671875 C-124.90859375 163.67027344 -124.41875 164.47335937 -123.9140625 165.30078125 C-123.40617188 166.15027344 -122.89828125 166.99976563 -122.375 167.875 C-121.859375 168.71675781 -121.34375 169.55851563 -120.8125 170.42578125 C-117 176.72951802 -117 176.72951802 -117 179 C-115.97261719 178.41992188 -114.94523438 177.83984375 -113.88671875 177.2421875 C-99.6878449 169.23371304 -85.35720784 161.50394717 -70.93212891 153.91162109 C-63.91265768 150.21653317 -56.97750892 146.45620978 -50.2109375 142.30859375 C-47.4583416 140.67940713 -44.63007435 139.26668401 -41.75 137.87890625 C-39.78376221 136.92465 -39.78376221 136.92465 -37.1875 135.25 C-35 134 -35 134 -32 134 C-32 133.34 -32 132.68 -32 132 C-30.35 131.67 -28.7 131.34 -27 131 C-27 127.04 -27 123.08 -27 119 C-39.21 119 -51.42 119 -64 119 C-61.89352639 114.08489492 -59.85364612 109.81452629 -57.1875 105.25 C-56.4680061 104.0069407 -55.74926173 102.76344727 -55.03125 101.51953125 C-54.68191406 100.9157666 -54.33257812 100.31200195 -53.97265625 99.68994141 C-50.63940986 93.89859313 -47.51418663 87.9969096 -44.4296875 82.0703125 C-39.96262443 73.48787503 -35.48755292 64.97131516 -30.53125 56.66015625 C-28.96787438 53.94418993 -27.56580886 51.18904725 -26.1875 48.375 C-21.03263419 37.87230549 -15.20735607 27.690422 -9.25 17.625 C-5.87031888 11.89318926 -2.89809165 5.98726627 0 0 Z M-296 77 C-296.12668307 84.47458825 -296.2143025 91.94890015 -296.2746582 99.42431641 C-296.29981627 101.96771592 -296.33394631 104.51104304 -296.37719727 107.05419922 C-296.43778821 110.70818938 -296.46619767 114.36122451 -296.48828125 118.015625 C-296.51408768 119.15429016 -296.5398941 120.29295532 -296.56648254 121.46612549 C-296.73350314 127.58870802 -296.73350314 127.58870802 -293.70556641 132.62597656 C-292.81272949 133.0794043 -291.91989258 133.53283203 -291 134 C-290.04105835 134.54817383 -290.04105835 134.54817383 -289.06274414 135.10742188 C-288.45551514 135.39166016 -287.84828613 135.67589844 -287.22265625 135.96875 C-282.90373462 138.04361547 -278.67028127 140.25528523 -274.4375 142.5 C-273.72142578 142.87769531 -273.00535156 143.25539063 -272.26757812 143.64453125 C-266.80814183 146.5356977 -261.38334121 149.464069 -256.1875 152.8125 C-255.465625 153.204375 -254.74375 153.59625 -254 154 C-253.34 153.67 -252.68 153.34 -252 153 C-252.43570313 152.26136719 -252.87140625 151.52273438 -253.3203125 150.76171875 C-256.76147433 144.89982619 -260.11395377 139.00583347 -263.34765625 133.02734375 C-265.30633436 129.43874911 -267.30555361 125.87426201 -269.3125 122.3125 C-269.69301514 121.63711182 -270.07353027 120.96172363 -270.46557617 120.26586914 C-271.64317111 118.17693739 -272.82145725 116.08839714 -274 114 C-275.56338134 111.22966253 -277.12603518 108.45891818 -278.6875 105.6875 C-279.25235107 104.68529419 -279.25235107 104.68529419 -279.82861328 103.6628418 C-281.98194602 99.83453667 -284.10015825 95.98984371 -286.1875 92.125 C-288.96921759 87.00446399 -291.7681957 81.85296997 -295 77 C-295.33 77 -295.66 77 -296 77 Z M-162 157 C-163.39913272 159.04206023 -164.74159705 161.09536457 -166.0625 163.1875 C-166.46299561 163.81736816 -166.86349121 164.44723633 -167.27612305 165.09619141 C-168.52220065 167.06115049 -169.76183023 169.03005023 -171 171 C-171.37705078 171.59731934 -171.75410156 172.19463867 -172.14257812 172.81005859 C-176.08731774 179.07118601 -179.84758403 185.30111606 -183 192 C-179.0169099 194.36330012 -175.01635267 196.69367724 -171 199 C-169.81083984 199.68835938 -169.81083984 199.68835938 -168.59765625 200.390625 C-164.86962992 202.46548479 -164.86962992 202.46548479 -160.71484375 202.80078125 C-157.28329277 201.78859715 -154.17569017 200.30588057 -151 198.6875 C-150.39671875 198.39166016 -149.7934375 198.09582031 -149.171875 197.79101562 C-145.40555161 195.89557244 -142.19718418 193.7430387 -139 191 C-139.66 191 -140.32 191 -141 191 C-141.27457031 190.27039063 -141.54914063 189.54078125 -141.83203125 188.7890625 C-142.94060345 186.14183657 -144.19419538 183.82156483 -145.6875 181.375 C-146.47253906 180.08529297 -146.47253906 180.08529297 -147.2734375 178.76953125 C-149.66500132 174.93328973 -152.11356783 171.13481316 -154.58203125 167.34765625 C-156 165 -156 165 -157 162 C-157.66 162 -158.32 162 -159 162 C-159.66 160.35 -160.32 158.7 -161 157 C-161.33 157 -161.66 157 -162 157 Z " fill="#131311" transform="translate(412,172)"/>
<path d="M0 0 C24.75 0 49.5 0 75 0 C75 8.91 75 17.82 75 27 C65.76 27.33 56.52 27.66 47 28 C50.52491787 35.04983573 53.93499474 41.81162472 58 48.5 C61.46068819 54.28157469 64.6354349 60.10781346 67.57421875 66.17578125 C69.61659582 70.22136651 71.9522219 74.07774527 74.265625 77.97265625 C76.5724939 81.99928553 78.61830399 86.13329615 80.640625 90.30859375 C81.96867135 93.04193228 81.96867135 93.04193228 83.671875 95.66015625 C85 98 85 98 85 101 C85.66 101 86.32 101 87 101 C87.58007812 102.09957031 88.16015625 103.19914062 88.7578125 104.33203125 C93.93134972 114.12896585 99.14210603 123.89883608 104.5546875 133.56640625 C105.00851807 134.37859619 105.46234863 135.19078613 105.92993164 136.02758789 C106.83819224 137.6518074 107.74876715 139.27473532 108.66186523 140.89624023 C109.07895752 141.64204346 109.4960498 142.38784668 109.92578125 143.15625 C110.30130127 143.82462891 110.67682129 144.49300781 111.0637207 145.18164062 C112 147 112 147 113 150 C113.66 150 114.32 150 115 150 C116.61394288 147.77690922 116.61394288 147.77690922 118.3125 144.8125 C119.01863033 143.63227301 119.72573543 142.45262891 120.43359375 141.2734375 C120.83175293 140.60666992 121.22991211 139.93990234 121.64013672 139.25292969 C124.90044898 133.85146443 128.26760008 128.51437079 131.60668945 123.16137695 C132.14640381 122.292146 132.68611816 121.42291504 133.2421875 120.52734375 C133.7254248 119.75124756 134.20866211 118.97515137 134.70654297 118.17553711 C135.90748501 116.15560609 136.98003095 114.11605967 138 112 C138.66 112 139.32 112 140 112 C140.0825 111.484375 140.165 110.96875 140.25 110.4375 C141.32140225 106.95544268 143.13523605 104.12799115 145 101 C145.66 101 146.32 101 147 101 C147.0825 100.484375 147.165 99.96875 147.25 99.4375 C148 97 148 97 150.01275635 93.91368103 C152.49652656 89.60968135 152.5759909 85.82743925 152.54589844 80.94360352 C152.56140495 79.62533821 152.56140495 79.62533821 152.57722473 78.28044128 C152.60655277 75.39640703 152.60814979 72.51307763 152.609375 69.62890625 C152.62436339 67.62107513 152.64109192 65.61325631 152.65948486 63.60545349 C152.70309643 58.33655213 152.72314382 53.06781707 152.73822021 47.79876709 C152.75781356 42.41587516 152.79978112 37.03316224 152.83984375 31.65039062 C152.91507906 21.10028541 152.96334174 10.55030986 153 0 C162.57 0 172.14 0 182 0 C181.9779248 2.64257812 181.95584961 5.28515625 181.93310547 8.0078125 C181.86707819 16.79686428 181.8567991 25.58536892 181.87302971 34.37463379 C181.88118345 39.69723164 181.87130139 45.01845171 181.81835938 50.34082031 C181.76783713 55.48971915 181.76709632 60.63655974 181.79904556 65.7855835 C181.80276017 67.73732993 181.78935722 69.68919602 181.75750351 71.64068604 C181.55421382 85.01507026 183.61700657 93.71372922 191.80823135 104.43186951 C193.43580987 106.57343911 194.90269379 108.81245195 196.375 111.0625 C196.79523438 111.67222656 197.21546875 112.28195313 197.6484375 112.91015625 C199.1503998 115.23255461 200.50874584 117.6243218 201.87109375 120.03051758 C207.76342537 130.31024058 213.97259453 140.45424103 221 150 C223.05422446 147.37156755 224.74736821 144.77107454 226.26953125 141.8046875 C226.68041992 141.0113501 227.09130859 140.2180127 227.51464844 139.40063477 C228.15708496 138.15044556 228.15708496 138.15044556 228.8125 136.875 C231.9163341 130.89601762 235.09879975 125.03936987 238.64453125 119.30859375 C240.78275595 115.66683353 242.57693844 111.86118575 244.43359375 108.0703125 C246.5399299 103.94168354 248.91115641 99.99132789 251.27734375 96.0078125 C253.54774037 92.04362793 255.53087462 87.96075342 257.5390625 83.859375 C258.8997462 81.19621866 260.36662083 78.66832818 261.9375 76.125 C264.36042996 72.19011113 266.47052982 68.14780605 268.5 64 C270.94381206 59.00536714 273.60521044 54.23386603 276.52734375 49.50390625 C278.73068579 45.75764034 280.61434381 41.86699061 282.5078125 37.95703125 C284.21545185 34.57304436 286.11941748 31.29101942 288 28 C274.14 27.505 274.14 27.505 260 27 C260 18.09 260 9.18 260 0 C284.42 0 308.84 0 334 0 C333.20941164 3.95294182 332.74123745 5.86151021 330.8828125 9.16015625 C330.22792847 10.33553955 330.22792847 10.33553955 329.55981445 11.53466797 C329.08632568 12.36885254 328.61283691 13.20303711 328.125 14.0625 C327.12086581 15.85794546 326.11696628 17.65352216 325.11328125 19.44921875 C324.59717285 20.36751465 324.08106445 21.28581055 323.54931641 22.23193359 C321.10655479 26.59626249 318.71275611 30.98720341 316.3125 35.375 C313.18545352 41.07820004 310.01218924 46.74810419 306.75 52.375 C303.45477966 58.08761559 300.499066 63.90485317 297.640625 69.84375 C295.96327328 73.07065522 294.04120321 75.99319766 292 79 C291.12135649 80.52784894 290.26703746 82.06994231 289.4375 83.625 C286.50037266 89.07434033 283.54119989 94.51078814 280.5625 99.9375 C280.08329102 100.81100098 279.60408203 101.68450195 279.11035156 102.58447266 C276.53430018 107.26444587 273.91186488 111.90490457 271.1875 116.5 C269.02025132 120.1648993 267.04798444 123.85800286 265.1875 127.6875 C262.29665716 133.60165017 258.99746989 139.22775043 255.60229492 144.86206055 C253.19723999 148.87302091 251.00302028 152.92059799 248.94677734 157.12060547 C247.03301109 160.91951537 244.77383487 164.52306549 242.5859375 168.16796875 C241.14840271 170.73499516 240.01767418 173.24421893 239 176 C238.34 176 237.68 176 237 176 C236.88398438 176.55945313 236.76796875 177.11890625 236.6484375 177.6953125 C235.91813362 180.29097087 234.85733528 182.47754773 233.625 184.875 C233.18027344 185.74640625 232.73554688 186.6178125 232.27734375 187.515625 C231.85582031 188.33546875 231.43429687 189.1553125 231 190 C230.39393269 191.20738114 229.78936179 192.41551697 229.1875 193.625 C228.795625 194.40875 228.40375 195.1925 228 196 C227.34 196 226.68 196 226 196 C225.855625 196.598125 225.71125 197.19625 225.5625 197.8125 C225.1127561 199.56150404 224.57107659 201.28677023 224 203 C223.01 203 222.02 203 221 203 C216.21410872 197.65787922 212.86823473 191.08588168 209.52734375 184.78515625 C206.92432254 180.03847052 203.94503096 175.53918903 201 171 C199.76930736 169.06346893 198.54011771 167.12598181 197.3125 165.1875 C195.45048355 162.24769474 193.56021064 159.34884792 191.5625 156.5 C190 154 190 154 190 151 C189.34 151 188.68 151 188 151 C186.8425293 149.45874023 186.8425293 149.45874023 185.57421875 147.30859375 C185.10693359 146.52806641 184.63964844 145.74753906 184.15820312 144.94335938 C183.67287109 144.11642578 183.18753906 143.28949219 182.6875 142.4375 C179.331439 136.77100789 175.86671532 131.33158017 172 126 C170.58478661 123.70078512 169.30378462 121.36612765 168 119 C164.9828218 122.61523802 162.48328059 126.33876781 160.0625 130.375 C157.92173455 133.91703874 155.78033407 137.42310977 153.3125 140.75 C151.59830521 143.15913863 150.22192412 145.35554286 148.84375 147.9375 C145.57137882 153.8877043 141.87538278 159.55144561 138.1875 165.25 C133.2929419 172.84970703 128.44998601 180.46609441 123.75 188.1875 C120.62590642 193.20836469 117.31650329 198.10462945 114 203 C110.50300586 201.83433529 110.41260119 201.43760737 108.8125 198.3125 C106.64238271 194.20104284 104.38550976 190.15162334 102.0625 186.125 C99.07602069 180.9228816 96.16534253 175.68569427 93.32421875 170.40234375 C92.38335175 168.69546115 91.37841232 167.02321936 90.33203125 165.37890625 C89 163 89 163 89 160 C88.34 160 87.68 160 87 160 C84 154.375 84 154.375 84 151 C83.34 151 82.68 151 82 151 C81.32591692 149.73308493 80.66099503 148.46129251 80 147.1875 C79.62875 146.47980469 79.2575 145.77210938 78.875 145.04296875 C78 143 78 143 78 140 C77.34 140 76.68 140 76 140 C75.505 137.525 75.505 137.525 75 135 C74.34 135 73.68 135 73 135 C72.56429687 134.10539063 72.12859375 133.21078125 71.6796875 132.2890625 C68.50905435 125.83215818 65.23524648 119.54481835 61.4609375 113.4140625 C58.19265951 108.01353898 55.28226986 102.40425598 52.3125 96.8359375 C48.8979237 90.44885059 45.36803379 84.15604173 41.6953125 77.9140625 C38.26978145 72.02593771 34.98282422 66.06272339 32 59.9375 C30.50648356 56.89469265 28.83015798 54.01712234 27.0625 51.125 C24.48291199 46.89970015 22.22528359 42.58783893 20.078125 38.12890625 C18.94912409 35.79482548 18.94912409 35.79482548 17 33 C17 32.01 17 31.02 17 30 C16.34 30 15.68 30 15 30 C14.67128906 29.33097656 14.34257813 28.66195312 14.00390625 27.97265625 C10.42804512 20.75309922 6.70875316 13.62307758 2.89672852 6.52563477 C0 1.10536827 0 1.10536827 0 0 Z " fill="#161615" transform="translate(83,138)"/>
<path d="M0 0 C9.24 0 18.48 0 28 0 C28.13568773 14.31714322 28.24570978 28.63385765 28.31087303 42.95149899 C28.34215224 49.60018568 28.38456392 56.24828543 28.45263672 62.89672852 C28.51794816 69.31583256 28.55373181 75.73449132 28.56926346 82.15390205 C28.58032838 84.5999 28.60193589 87.04587426 28.63438034 89.49168205 C28.67809763 92.92459166 28.68392734 96.35567406 28.68115234 99.78881836 C28.71350983 101.2971801 28.71350983 101.2971801 28.746521 102.83601379 C28.682513 110.18005178 26.50227192 114.30731632 22 120 C21.19684432 121.17975985 20.40355657 122.36636371 19.625 123.5625 C19.08875 124.366875 18.5525 125.17125 18 126 C14.74255213 124.64888249 13.38544775 123.51618557 11.81640625 120.3671875 C11.44580078 119.64273438 11.07519531 118.91828125 10.69335938 118.171875 C10.32017578 117.41390625 9.94699219 116.6559375 9.5625 115.875 C8.81692432 114.39165571 8.0682274 112.90987611 7.31640625 111.4296875 C6.99099854 110.77210449 6.66559082 110.11452148 6.33032227 109.43701172 C5.11194322 107.07557574 5.11194322 107.07557574 3.79629135 105.36343575 C-0.10856334 99.86918413 -0.70064053 95.64083671 -0.56762695 89.00390625 C-0.56835709 88.03713455 -0.56908722 87.07036285 -0.56983948 86.07429504 C-0.5663773 82.90311066 -0.52758025 79.73342535 -0.48828125 76.5625 C-0.47894828 74.35433759 -0.47183445 72.14616478 -0.46684265 69.93798828 C-0.44781122 64.14437958 -0.39874297 58.35140408 -0.34332275 52.55804443 C-0.29204742 46.63904382 -0.26931089 40.71994025 -0.24414062 34.80078125 C-0.19062084 23.2001988 -0.10271583 11.60025128 0 0 Z " fill="#161614" transform="translate(181,138)"/>
<path d="M0 0 C9.24 0 18.48 0 28 0 C28.22700827 12.61432565 28.40999984 25.22726855 28.51812172 37.84318447 C28.57004674 43.70295766 28.64033581 49.56124676 28.75439453 55.42016602 C28.86401368 61.08727903 28.92304116 66.75297585 28.94877243 72.42106819 C28.96707981 74.57033618 29.00282642 76.71953714 29.05730057 78.86819267 C29.40489121 93.16261466 27.59916462 102.59224681 19.17521286 114.29084969 C16.66857122 117.93634021 14.86711677 122.00043934 13 126 C12.01 126 11.02 126 10 126 C8.3099428 123.75548544 6.83336595 121.57498619 5.375 119.1875 C4.96765625 118.54490234 4.5603125 117.90230469 4.140625 117.24023438 C1.3964468 112.85590993 -0.12618958 109.65874383 -0.12025452 104.50117493 C-0.12162918 103.57990814 -0.12300385 102.65864136 -0.12442017 101.7094574 C-0.12082489 100.70101273 -0.11722961 99.69256805 -0.11352539 98.65356445 C-0.11367142 97.58998718 -0.11381744 96.52640991 -0.1139679 95.43060303 C-0.11327012 91.90814183 -0.10548401 88.38573323 -0.09765625 84.86328125 C-0.09579159 82.4237623 -0.09436791 79.98424297 -0.09336853 77.54472351 C-0.08954713 71.11838755 -0.07972004 64.69207412 -0.06866455 58.26574707 C-0.05844233 51.71037094 -0.05386917 45.15499117 -0.04882812 38.59960938 C-0.03809746 25.73306141 -0.02050369 12.8665361 0 0 Z " fill="#0C0C0B" transform="translate(292,138)"/>
<path d="M0 0 C0.33 0 0.66 0 1 0 C1 26.4 1 52.8 1 80 C-5.93 80 -12.86 80 -20 80 C-20.33 73.73 -20.66 67.46 -21 61 C-24.3 61.99 -27.6 62.98 -31 64 C-32.11342508 59.28935544 -32.56849719 56.3323654 -30.125 52.0625 C-29.42890625 50.94488281 -29.42890625 50.94488281 -28.71875 49.8046875 C-26.50352445 46.18984217 -24.58030036 42.44747079 -22.625 38.6875 C-19.41659654 32.58300965 -16.08327094 26.57938828 -12.5546875 20.65234375 C-11.0904848 18.15436979 -9.72816716 15.62175094 -8.375 13.0625 C-6.39463464 9.42964434 -3.97172173 6.88917391 -1 4 C-0.13880866 1.82653432 -0.13880866 1.82653432 0 0 Z " fill="#0A0A08" transform="translate(412,175)"/>
<path d="M0 0 C2.41391408 2.21271805 3.93317426 4.40687288 5.48828125 7.28125 C5.94436768 8.1180127 6.4004541 8.95477539 6.87036133 9.81689453 C7.34626709 10.70231934 7.82217285 11.58774414 8.3125 12.5 C9.05052856 13.85714111 9.05052856 13.85714111 9.8034668 15.24169922 C11.20741609 17.82507725 12.6049702 20.41179699 14 23 C16.94843136 28.45959535 19.90156257 33.88442553 23.125 39.1875 C24.85639144 42.03736136 26.48361186 44.87442235 27.9375 47.875 C30.63121169 53.43078035 33.87284077 58.6810372 37 64 C37.98704162 65.68290596 38.96715604 67.36991139 39.9375 69.0625 C40.33839844 69.75472656 40.73929688 70.44695312 41.15234375 71.16015625 C42 73 42 73 42 76 C42.66 76 43.32 76 44 76 C44.72767003 77.23884319 45.43154815 78.49168341 46.125 79.75 C46.71667969 80.79414063 46.71667969 80.79414063 47.3203125 81.859375 C48 84 48 84 47.1171875 86.265625 C46.74851563 86.83796875 46.37984375 87.4103125 46 88 C45.34 87.01 44.68 86.02 44 85 C41 84.5 41 84.5 38 85 C37.34 85.99 36.68 86.98 36 88 C32.39962615 82.11428247 28.96605482 76.16810541 25.6875 70.09765625 C23.71912122 66.48440538 21.70772165 62.89694548 19.6875 59.3125 C19.30706543 58.63727295 18.92663086 57.9620459 18.53466797 57.26635742 C17.35700758 55.1772539 16.17863208 53.08855545 15 51 C5.75067024 34.61003542 5.75067024 34.61003542 1.484375 26.72265625 C0.13714265 24.25154849 -1.22517476 21.78970849 -2.59277344 19.32983398 C-3.04344177 18.5190892 -3.49411011 17.70834442 -3.95843506 16.87303162 C-4.30215149 16.25493118 -4.64586792 15.63683075 -5 15 C-5.0252908 22.36897044 -5.04284179 29.73792974 -5.05493164 37.10693359 C-5.05997003 39.61540139 -5.06680084 42.12386624 -5.07543945 44.63232422 C-5.08752661 48.2314527 -5.09323315 51.83054247 -5.09765625 55.4296875 C-5.10281754 56.55680145 -5.10797882 57.68391541 -5.11329651 58.84518433 C-5.11337204 59.88611237 -5.11344757 60.92704041 -5.11352539 61.99951172 C-5.115746 62.91884491 -5.11796661 63.8381781 -5.12025452 64.78536987 C-5.14510529 67.04150588 -5.14510529 67.04150588 -4 69 C-4.99 68.67 -5.98 68.34 -7 68 C-7 48.86 -7 29.72 -7 10 C-4.69 10.33 -2.38 10.66 0 11 C-0.33 9.02 -0.66 7.04 -1 5 C-0.34 5 0.32 5 1 5 C0.67 3.35 0.34 1.7 0 0 Z " fill="#353533" transform="translate(122,235)"/>
<path d="M0 0 C1.21042969 -0.00128906 2.42085937 -0.00257812 3.66796875 -0.00390625 C4.94285156 -0.00003906 6.21773437 0.00382812 7.53125 0.0078125 C9.44357422 0.00201172 9.44357422 0.00201172 11.39453125 -0.00390625 C13.21017578 -0.00197266 13.21017578 -0.00197266 15.0625 0 C16.18205078 0.00112793 17.30160156 0.00225586 18.45507812 0.00341797 C21.03125 0.1328125 21.03125 0.1328125 22.03125 1.1328125 C22.11892112 3.20543326 22.13820873 5.28101544 22.12890625 7.35546875 C22.12640869 8.48992432 22.12391113 9.62437988 22.12133789 10.79321289 C22.11223389 12.24590576 22.10312988 13.69859863 22.09375 15.1953125 C22.073125 19.7946875 22.0525 24.3940625 22.03125 29.1328125 C12.46125 29.1328125 2.89125 29.1328125 -6.96875 29.1328125 C-6.989375 24.5334375 -7.01 19.9340625 -7.03125 15.1953125 C-7.040354 13.74261963 -7.04945801 12.28992676 -7.05883789 10.79321289 C-7.06133545 9.65875732 -7.06383301 8.52430176 -7.06640625 7.35546875 C-7.07164307 6.18765869 -7.07687988 5.01984863 -7.08227539 3.81665039 C-6.8738384 -1.11097928 -4.34811066 0.00438065 0 0 Z " fill="#262624" transform="translate(242.96875,96.8671875)"/>
<path d="M0 0 C1.12591553 0.00523682 2.25183105 0.01047363 3.41186523 0.01586914 C4.50571533 0.0183667 5.59956543 0.02086426 6.7265625 0.0234375 C8.82729126 0.03709351 8.82729126 0.03709351 10.97045898 0.05102539 C17.62202148 0.08196289 17.62202148 0.08196289 24.40795898 0.11352539 C24.40795898 9.68352539 24.40795898 19.25352539 24.40795898 29.11352539 C15.16795898 29.11352539 5.92795898 29.11352539 -3.59204102 29.11352539 C-3.61266602 24.51415039 -3.63329102 19.91477539 -3.65454102 15.17602539 C-3.66364502 13.72333252 -3.67274902 12.27063965 -3.68212891 10.77392578 C-3.68462646 9.63947021 -3.68712402 8.50501465 -3.68969727 7.33618164 C-3.69493408 6.16837158 -3.7001709 5.00056152 -3.70556641 3.79736328 C-3.55519047 0.24234674 -3.54549465 0.15528445 0 0 Z " fill="#1D1D1B" transform="translate(295.592041015625,96.886474609375)"/>
<path d="M0 0 C1.12591553 0.00523682 2.25183105 0.01047363 3.41186523 0.01586914 C4.50571533 0.0183667 5.59956543 0.02086426 6.7265625 0.0234375 C8.82729126 0.03709351 8.82729126 0.03709351 10.97045898 0.05102539 C17.62202148 0.08196289 17.62202148 0.08196289 24.40795898 0.11352539 C24.40795898 9.68352539 24.40795898 19.25352539 24.40795898 29.11352539 C15.16795898 29.11352539 5.92795898 29.11352539 -3.59204102 29.11352539 C-3.61266602 24.51415039 -3.63329102 19.91477539 -3.65454102 15.17602539 C-3.66364502 13.72333252 -3.67274902 12.27063965 -3.68212891 10.77392578 C-3.68462646 9.63947021 -3.68712402 8.50501465 -3.68969727 7.33618164 C-3.69493408 6.16837158 -3.7001709 5.00056152 -3.70556641 3.79736328 C-3.55519047 0.24234674 -3.54549465 0.15528445 0 0 Z " fill="#242422" transform="translate(184.592041015625,96.886474609375)"/>
<path d="M0 0 C2.41391408 2.21271805 3.93317426 4.40687288 5.48828125 7.28125 C5.94436768 8.1180127 6.4004541 8.95477539 6.87036133 9.81689453 C7.34626709 10.70231934 7.82217285 11.58774414 8.3125 12.5 C9.05052856 13.85714111 9.05052856 13.85714111 9.8034668 15.24169922 C11.20741609 17.82507725 12.6049702 20.41179699 14 23 C15.10294886 25.0423248 16.20680135 27.0841626 17.3125 29.125 C17.75335938 29.94097656 18.19421875 30.75695312 18.6484375 31.59765625 C20.64238751 35.14181595 22.80816905 38.57670591 24.99609375 42.00390625 C25.32738281 42.66261719 25.65867188 43.32132812 26 44 C25.505 44.99 25.505 44.99 25 46 C23.33333333 44.33333333 21.66666667 42.66666667 20 41 C20 41.66 20 42.32 20 43 C18.35 42.67 16.7 42.34 15 42 C15.33 44.97 15.66 47.94 16 51 C13.06006504 49.53003252 12.58289476 47.37924252 11.1875 44.4375 C9.4360935 40.83715104 7.69000773 37.35234192 5.5 34 C2.72616098 29.73600798 0.55051579 25.20831882 -1.66796875 20.63671875 C-2.99785969 17.87329051 -2.99785969 17.87329051 -5 15 C-5.0252908 22.36897044 -5.04284179 29.73792974 -5.05493164 37.10693359 C-5.05997003 39.61540139 -5.06680084 42.12386624 -5.07543945 44.63232422 C-5.08752661 48.2314527 -5.09323315 51.83054247 -5.09765625 55.4296875 C-5.10281754 56.55680145 -5.10797882 57.68391541 -5.11329651 58.84518433 C-5.11337204 59.88611237 -5.11344757 60.92704041 -5.11352539 61.99951172 C-5.115746 62.91884491 -5.11796661 63.8381781 -5.12025452 64.78536987 C-5.14510529 67.04150588 -5.14510529 67.04150588 -4 69 C-4.99 68.67 -5.98 68.34 -7 68 C-7 48.86 -7 29.72 -7 10 C-4.69 10.33 -2.38 10.66 0 11 C-0.33 9.02 -0.66 7.04 -1 5 C-0.34 5 0.32 5 1 5 C0.67 3.35 0.34 1.7 0 0 Z M21 44 C21.33 44.66 21.66 45.32 22 46 C22.66 46.33 23.32 46.66 24 47 C22.68 46.67 21.36 46.34 20 46 C20.33 45.34 20.66 44.68 21 44 Z " fill="#0F0F0E" transform="translate(122,235)"/>
<path d="M0 0 C3 1 3 1 4.359375 3.30078125 C4.81828125 4.29464844 5.2771875 5.28851563 5.75 6.3125 C9.28290011 13.69546832 13.23359883 20.84123797 17.76953125 27.66015625 C18.37861328 28.81837891 18.37861328 28.81837891 19 30 C18.67 30.99 18.34 31.98 18 33 C17.34 32.34 16.68 31.68 16 31 C13.39719432 31.32041397 13.39719432 31.32041397 11 32 C10.67 33.32 10.34 34.64 10 36 C7.03 36.495 7.03 36.495 4 37 C2.8422494 33.52674819 2.93133348 30.63932552 3 27 C2.34 27 1.68 27 1 27 C1.33 65.94 1.66 104.88 2 145 C1.34 145 0.68 145 0 145 C0 97.15 0 49.3 0 0 Z " fill="#5B5B59" transform="translate(87,173)"/>
<path d="M0 0 C0.66 0 1.32 0 2 0 C2 27.72 2 55.44 2 84 C-5.59 84 -13.18 84 -21 84 C-21.33 78.72 -21.66 73.44 -22 68 C-26.37792753 75.64282264 -30.75364016 83.2830576 -35 91 C-35.45375 90.34 -35.9075 89.68 -36.375 89 C-36.91125 88.34 -37.4475 87.68 -38 87 C-38.66 87 -39.32 87 -40 87 C-39.44271087 83.65626525 -38.64826111 80.96687001 -37 78 C-37.66 77.34 -38.32 76.68 -39 76 C-39.99 76.495 -39.99 76.495 -41 77 C-39.57250019 73.20950293 -37.83763458 69.72877544 -35.875 66.1875 C-35.33617187 65.21167969 -34.79734375 64.23585938 -34.2421875 63.23046875 C-33.83226562 62.49441406 -33.42234375 61.75835937 -33 61 C-32.2884375 62.051875 -32.2884375 62.051875 -31.5625 63.125 C-30.716875 63.74375 -29.87125 64.3625 -29 65 C-26.03 64.34 -23.06 63.68 -20 63 C-20 69.6 -20 76.2 -20 83 C-13.07 83 -6.14 83 1 83 C0.67 57.92 0.34 32.84 0 7 C-1.32 8.32 -2.64 9.64 -4 11 C-4 7.80389448 -3.45328458 6.58282374 -2 3.8125 C-1.62875 3.09707031 -1.2575 2.38164062 -0.875 1.64453125 C-0.58625 1.10183594 -0.2975 0.55914062 0 0 Z " fill="#252524" transform="translate(412,172)"/>
<path d="M0 0 C9.24 0 18.48 0 28 0 C28 32.67 28 65.34 28 99 C27.01 99.495 27.01 99.495 26 100 C25.67 99.01 25.34 98.02 25 97 C25.33 96.67 25.66 96.34 26 96 C26.09268999 94.64905018 26.11747326 93.29332909 26.11352539 91.93920898 C26.11341209 90.64798378 26.11341209 90.64798378 26.11329651 89.33067322 C26.10555458 87.92755638 26.10555458 87.92755638 26.09765625 86.49609375 C26.09553383 85.06657127 26.09553383 85.06657127 26.09336853 83.60816956 C26.08775152 80.55124835 26.07519616 77.49439923 26.0625 74.4375 C26.05748719 72.37044376 26.05292391 70.30338638 26.04882812 68.23632812 C26.03777656 63.15752412 26.02050055 58.0787743 26 53 C25.67 53 25.34 53 25 53 C25 36.17 25 19.34 25 2 C17.08 1.67 9.16 1.34 1 1 C1 36.64 1 72.28 1 109 C0.67 109 0.34 109 0 109 C0 73.03 0 37.06 0 0 Z " fill="#464645" transform="translate(292,138)"/>
<path d="M0 0 C3.32017247 3.1042311 5.14151584 6.58273616 7.25 10.5625 C7.62640625 11.24763672 8.0028125 11.93277344 8.390625 12.63867188 C9.32665021 14.39199851 10.17109121 16.19356493 11 18 C9.48065294 21.03869411 7.01995228 21.64410306 4 23 C3.34 23 2.68 23 2 23 C2 23.66 2 24.32 2 25 C2.66 25.33 3.32 25.66 4 26 C3.01 26 2.02 26 1 26 C-0.98 22.37 -2.96 18.74 -5 15 C-5.0246619 22.36897536 -5.04284179 29.73792686 -5.05493164 37.10693359 C-5.05997003 39.61540139 -5.06680084 42.12386624 -5.07543945 44.63232422 C-5.08752661 48.2314527 -5.09323315 51.83054247 -5.09765625 55.4296875 C-5.10281754 56.55680145 -5.10797882 57.68391541 -5.11329651 58.84518433 C-5.11337204 59.88611237 -5.11344757 60.92704041 -5.11352539 61.99951172 C-5.115746 62.91884491 -5.11796661 63.8381781 -5.12025452 64.78536987 C-5.14510529 67.04150588 -5.14510529 67.04150588 -4 69 C-4.99 68.67 -5.98 68.34 -7 68 C-7 48.86 -7 29.72 -7 10 C-4.69 10.33 -2.38 10.66 0 11 C-0.33 9.02 -0.66 7.04 -1 5 C-0.34 5 0.32 5 1 5 C0.67 3.35 0.34 1.7 0 0 Z " fill="#ACACAA" transform="translate(122,235)"/>
<path d="M0 0 C8.58 0 17.16 0 26 0 C26 6.6 26 13.2 26 20 C25.01 20 24.02 20 23 20 C22.97300275 17.72923158 22.95360547 15.45837179 22.9375 13.1875 C22.92589844 11.92292969 22.91429687 10.65835938 22.90234375 9.35546875 C23 6 23 6 24 3 C13.605 3.495 13.605 3.495 3 4 C3 10.6 3 17.2 3 24 C8.94 24 14.88 24 21 24 C21 24.66 21 25.32 21 26 C14.07 26 7.14 26 0 26 C0 17.42 0 8.84 0 0 Z " fill="#0E0E0C" transform="translate(182,99)"/>
<path d="M0 0 C3.83754046 1.27918015 6.07514995 3.4995343 8 7 C7.71887936 9.00800456 7.38932033 11.01014051 7 13 C8.81287195 15.39795381 8.81287195 15.39795381 11 17 C9.02 16.67 7.04 16.34 5 16 C5 16.66 5 17.32 5 18 C2.75 18.375 2.75 18.375 0 18 C-3.86659799 13.69150509 -5.42012222 8.68507623 -6 3 C-5.67 2.34 -5.34 1.68 -5 1 C-3.35 1.33 -1.7 1.66 0 2 C0 1.34 0 0.68 0 0 Z M1 3 C1 3.99 1 4.98 1 6 C1.99 5.67 2.98 5.34 4 5 C3.34 5 2.68 5 2 5 C1.67 4.34 1.34 3.68 1 3 Z " fill="#1B1B1A" transform="translate(142,276)"/>
<path d="M0 0 C6.27 0 12.54 0 19 0 C15.06659092 3.14672726 11.29375274 5.69510717 6.9375 8.125 C6.02000977 8.64513672 6.02000977 8.64513672 5.08398438 9.17578125 C3.39567627 10.12853458 1.69815131 11.06490357 0 12 C-0.74121094 12.43054688 -1.48242188 12.86109375 -2.24609375 13.3046875 C-4 14 -4 14 -7 13 C-6.57847656 12.22914063 -6.15695312 11.45828125 -5.72265625 10.6640625 C-5.17480469 9.66117187 -4.62695312 8.65828125 -4.0625 7.625 C-3.51722656 6.62726563 -2.97195313 5.62953125 -2.41015625 4.6015625 C-1.5850241 3.07929654 -0.77435609 1.54871217 0 0 Z " fill="#363635" transform="translate(341,302)"/>
<path d="M0 0 C0.66 0 1.32 0 2 0 C2 27.72 2 55.44 2 84 C-5.59 84 -13.18 84 -21 84 C-21.33 77.4 -21.66 70.8 -22 64 C-21.01 63.505 -21.01 63.505 -20 63 C-20 69.6 -20 76.2 -20 83 C-13.07 83 -6.14 83 1 83 C0.67 57.92 0.34 32.84 0 7 C-1.32 8.32 -2.64 9.64 -4 11 C-4 7.80389448 -3.45328458 6.58282374 -2 3.8125 C-1.62875 3.09707031 -1.2575 2.38164062 -0.875 1.64453125 C-0.58625 1.10183594 -0.2975 0.55914062 0 0 Z " fill="#BDBDBB" transform="translate(412,172)"/>
<path d="M0 0 C0.99 0 1.98 0 3 0 C3 14.52 3 29.04 3 44 C2.34 44 1.68 44 1 44 C0.12411013 39.53159306 -0.07800088 35.36092629 0 30.8125 C0.11039553 25.81434525 0.11039553 25.81434525 -1 21 C-1 19.68 -1 18.36 -1 17 C-0.34 17 0.32 17 1 17 C0.7525 15.576875 0.7525 15.576875 0.5 14.125 C-0.18541792 9.4236123 -0.08583441 4.73996714 0 0 Z " fill="#0C0D09" transform="translate(111,258)"/>
<path d="M0 0 C3.3 0.66 6.6 1.32 10 2 C10 2.66 10 3.32 10 4 C17.59 4 25.18 4 33 4 C33 4.33 33 4.66 33 5 C23.43 5 13.86 5 4 5 C4 5.66 4 6.32 4 7 C4.66 7 5.32 7 6 7 C7.00732399 8.93370231 8.00563288 10.87210306 9 12.8125 C9.8353125 14.43091797 9.8353125 14.43091797 10.6875 16.08203125 C12 19 12 19 12 22 C10 20.625 10 20.625 8 19 C8 18.34 8 17.68 8 17 C7.34 16.67 6.68 16.34 6 16 C5.896875 15.195625 5.79375 14.39125 5.6875 13.5625 C5.460625 12.716875 5.23375 11.87125 5 11 C2.54236535 9.67665827 0.79402354 9 -2 9 C-2 7.35 -2 5.7 -2 4 C-2.66 3.67 -3.32 3.34 -4 3 C-1 3 -1 3 1 4 C0.67 2.68 0.34 1.36 0 0 Z " fill="#212120" transform="translate(124,159)"/>
<path d="M0 0 C2.48982535 2.27745789 4.10368997 4.62335238 5.75 7.5625 C6.19859375 8.34753906 6.6471875 9.13257813 7.109375 9.94140625 C7.40328125 10.62074219 7.6971875 11.30007813 8 12 C7.67 12.66 7.34 13.32 7 14 C5.68 13.67 4.36 13.34 3 13 C2.01 14.485 2.01 14.485 1 16 C0.34 16 -0.32 16 -1 16 C-1 15.34 -1 14.68 -1 14 C-2.65 13.67 -4.3 13.34 -6 13 C-6.625 10.6875 -6.625 10.6875 -7 8 C-5 5 -5 5 -2.375 4.3125 C-1.59125 4.209375 -0.8075 4.10625 0 4 C0 2.68 0 1.36 0 0 Z " fill="#282826" transform="translate(170,321)"/>
<path d="M0 0 C0.66 0.99 1.32 1.98 2 3 C0.02 3.99 0.02 3.99 -2 5 C-1.34 3.35 -0.68 1.7 0 0 Z M3 0 C4.65 0.33 6.3 0.66 8 1 C9.47996115 8.39980576 8.03659134 12.76163157 4 19 C3.54625 18.34 3.0925 17.68 2.625 17 C2.08875 16.34 1.5525 15.68 1 15 C0.34 15 -0.32 15 -1 15 C-0.43742692 11.62456153 0.47941568 9.04116865 2 6 C2 5.01 2 4.02 2 3 C2.33 2.01 2.66 1.02 3 0 Z " fill="#2F2F2D" transform="translate(373,244)"/>
<path d="M0 0 C3.28426103 1.05565533 4.57151556 2.61660352 6.25 5.5 C8 9 8 9 8 11 C7.34 11 6.68 11 6 11 C5.67 11.66 5.34 12.32 5 13 C4.360625 13.28875 3.72125 13.5775 3.0625 13.875 C0.55729407 15.24147596 0.14821705 16.45641604 -1 19 C-1.84158536 17.73461631 -2.67299748 16.46246221 -3.5 15.1875 C-4.19609375 14.12595703 -4.19609375 14.12595703 -4.90625 13.04296875 C-6 11 -6 11 -6 8 C-5.01 7.67 -4.02 7.34 -3 7 C-2.67 6.34 -2.34 5.68 -2 5 C-0.35 5.33 1.3 5.66 3 6 C1.68 5.01 0.36 4.02 -1 3 C-0.67 2.01 -0.34 1.02 0 0 Z " fill="#2B2C29" transform="translate(149,286)"/>
<path d="M0 0 C0.33 0 0.66 0 1 0 C1 32.01 1 64.02 1 97 C0.01 97.495 0.01 97.495 -1 98 C-1.33 97.01 -1.66 96.02 -2 95 C-1.505 94.505 -1.505 94.505 -1 94 C-0.87470812 91.07882268 -0.81389328 88.18014759 -0.79467773 85.25756836 C-0.78477814 84.3405867 -0.77487854 83.42360504 -0.76467896 82.47883606 C-0.73296351 79.43253201 -0.70826701 76.38621233 -0.68359375 73.33984375 C-0.66303288 71.23376549 -0.64203666 69.12769144 -0.62062073 67.0216217 C-0.56531043 61.46661782 -0.5159408 55.91157615 -0.46777344 50.35650635 C-0.41762365 44.69271464 -0.36190362 39.02897809 -0.30664062 33.36523438 C-0.19894955 22.24353666 -0.09752906 11.12179114 0 0 Z " fill="#1C1C1A" transform="translate(319,140)"/>
<path d="M0 0 C0.99 0 1.98 0 3 0 C3 1.32 3 2.64 3 4 C3.99 4 4.98 4 6 4 C4.7230401 8.57577298 3.01026293 11.36997706 0 15 C-1.41230746 17.29620057 -2.70194755 19.63569019 -4 22 C-4.33 21.34 -4.66 20.68 -5 20 C-4.67 19.34 -4.34 18.68 -4 18 C-7.0745356 18.7763932 -7.0745356 18.7763932 -9 21 C-9.33 19.35 -9.66 17.7 -10 16 C-9.34 16.33 -8.68 16.66 -8 17 C-3.80541799 14.20361199 -2.56525389 10.69576167 -1 6 C-1 5.01 -1 4.02 -1 3 C-0.34 3 0.32 3 1 3 C0.67 2.01 0.34 1.02 0 0 Z " fill="#3A3A39" transform="translate(234,267)"/>
<path d="M0 0 C0.99 0.33 1.98 0.66 3 1 C3.41277905 29.15153143 3.41277905 29.15153143 1 41 C0.67 41 0.34 41 0 41 C0 27.47 0 13.94 0 0 Z " fill="#090907" transform="translate(182,152)"/>
<path d="M0 0 C0.33 0.66 0.66 1.32 1 2 C0.67 2.66 0.34 3.32 0 4 C0.66 4 1.32 4 2 4 C1.07162671 8.64186643 -1.2785171 10.27091254 -5 13 C-4.67 13.99 -4.34 14.98 -4 16 C-4.33 16.66 -4.66 17.32 -5 18 C-5.99 18.33 -6.98 18.66 -8 19 C-8.66 19.99 -9.32 20.98 -10 22 C-10.66 22 -11.32 22 -12 22 C-12 22.66 -12 23.32 -12 24 C-12.66 24 -13.32 24 -14 24 C-12.80100302 20.9168649 -11.52299523 17.93720508 -10 15 C-9.34 15 -8.68 15 -8 15 C-7.896875 14.44699219 -7.79375 13.89398438 -7.6875 13.32421875 C-6.85256216 10.50155959 -5.53978351 8.31834961 -4 5.8125 C-3.195625 4.49185547 -3.195625 4.49185547 -2.375 3.14453125 C-1 1 -1 1 0 0 Z " fill="#464646" transform="translate(245,287)"/>
<path d="M0 0 C1.5 1.25 1.5 1.25 3 3 C3 4.32 3 5.64 3 7 C3.66 7 4.32 7 5 7 C5.33 5.68 5.66 4.36 6 3 C7.32 3 8.64 3 10 3 C10.33 4.32 10.66 5.64 11 7 C10.01 7.495 10.01 7.495 9 8 C9.99 9.485 9.99 9.485 11 11 C10.01 11.66 9.02 12.32 8 13 C7.77390663 15.12364481 7.77390663 15.12364481 9.5 16.625 C9.995 17.07875 10.49 17.5325 11 18 C10.34 18.99 9.68 19.98 9 21 C7.70506805 18.60588163 6.41397828 16.2098212 5.125 13.8125 C4.76019531 13.13896484 4.39539063 12.46542969 4.01953125 11.77148438 C2.12640594 8.2433872 0.38919466 4.76544867 -1 1 C-0.67 0.67 -0.34 0.34 0 0 Z " fill="#434441" transform="translate(101,168)"/>
<path d="M0 0 C3.89126347 3.33536869 6.17099741 7.26210499 8 12 C8 12.99 8 13.98 8 15 C6.33333333 13.33333333 4.66666667 11.66666667 3 10 C3 10.66 3 11.32 3 12 C1.35 11.67 -0.3 11.34 -2 11 C-1.67 13.97 -1.34 16.94 -1 20 C-3.5178998 18.7410501 -3.92708464 17.60942883 -5.1875 15.125 C-5.55230469 14.42632812 -5.91710937 13.72765625 -6.29296875 13.0078125 C-7 11 -7 11 -6 8 C-5.2575 8.185625 -4.515 8.37125 -3.75 8.5625 C-1.05009037 8.99203108 0.44631077 8.85122974 3 8 C2.2575 7.4121875 2.2575 7.4121875 1.5 6.8125 C-0.45593143 4.44908285 -0.24207973 2.98564997 0 0 Z M4 13 C4.33 13.66 4.66 14.32 5 15 C5.66 15.33 6.32 15.66 7 16 C5.68 15.67 4.36 15.34 3 15 C3.33 14.34 3.66 13.68 4 13 Z " fill="#545453" transform="translate(139,266)"/>
<path d="M0 0 C3.64047024 2.42698016 4.77377299 5.16866214 6.5625 9 C8.7537834 13.8428863 8.7537834 13.8428863 12 18 C11.67 18.99 11.34 19.98 11 21 C10.34 20.34 9.68 19.68 9 19 C7.33385392 18.95834635 5.66614608 18.95834635 4 19 C3.34 18.67 2.68 18.34 2 18 C2.01160156 17.40832031 2.02320312 16.81664062 2.03515625 16.20703125 C2.0832724 11.99343116 2.05641085 8.1082644 1 4 C0.814375 3.236875 0.62875 2.47375 0.4375 1.6875 C0.293125 1.130625 0.14875 0.57375 0 0 Z " fill="#4D4D4C" transform="translate(94,185)"/>
<path d="M0 0 C1 3 1 3 0 6 C-0.33 6.33 -0.66 6.66 -1 7 C-0.979375 7.928125 -0.95875 8.85625 -0.9375 9.8125 C-0.99874638 12.93606557 -1.3945752 14.3911847 -3 17 C-3.66 17 -4.32 17 -5 17 C-5.33 17.66 -5.66 18.32 -6 19 C-8.30965848 20.05352843 -10.6429774 21.05719096 -13 22 C-11.18622034 18.24087118 -9.12855249 14.62412144 -7.0625 11 C-6.71509766 10.38382812 -6.36769531 9.76765625 -6.00976562 9.1328125 C-4.18338039 5.92717966 -2.3017146 2.88616251 0 0 Z " fill="#383837" transform="translate(218,256)"/>
<path d="M0 0 C0.33 0 0.66 0 1 0 C1.33 2.64 1.66 5.28 2 8 C1.195625 8.28875 0.39125 8.5775 -0.4375 8.875 C-3.1326468 9.73262568 -3.1326468 9.73262568 -4 12 C7.88 12 19.76 12 32 12 C32 16.29 32 20.58 32 25 C31.67 25 31.34 25 31 25 C31 21.04 31 17.08 31 13 C18.79 13 6.58 13 -6 13 C-4.09488272 8.55472634 -2.19558901 4.28662616 0 0 Z " fill="#50504E" transform="translate(354,278)"/>
<path d="M0 0 C0.99 0.33 1.98 0.66 3 1 C2.34 2.32 1.68 3.64 1 5 C1.66 5.33 2.32 5.66 3 6 C2.67 7.98 2.34 9.96 2 12 C0.35 12.33 -1.3 12.66 -3 13 C-3.5345256 11.75579353 -4.05208611 10.50429064 -4.5625 9.25 C-4.85253906 8.55390625 -5.14257812 7.8578125 -5.44140625 7.140625 C-6.07831803 4.69987216 -5.80248831 3.3596345 -5 1 C-3.35 1.33 -1.7 1.66 0 2 C0 1.34 0 0.68 0 0 Z " fill="#1D1D1B" transform="translate(142,276)"/>
<path d="M0 0 C1.32 0 2.64 0 4 0 C2.56347895 4.91441412 0.45840385 9.00238358 -2.125 13.375 C-2.49753906 14.01566406 -2.87007813 14.65632813 -3.25390625 15.31640625 C-4.16434002 16.88048477 -5.08148191 18.44065534 -6 20 C-8 17 -8 17 -8 15 C-7.01 15 -6.02 15 -5 15 C-5.66 13.35 -6.32 11.7 -7 10 C-6.01 9.67 -5.02 9.34 -4 9 C-3.67 7.02 -3.34 5.04 -3 3 C-2.34 3 -1.68 3 -1 3 C-0.67 2.01 -0.34 1.02 0 0 Z " fill="#393939" transform="translate(343,266)"/>
<path d="M0 0 C1.43088528 2.86177057 0.59991697 4.93375773 0 8 C0.66 8.33 1.32 8.66 2 9 C1.67 9.66 1.34 10.32 1 11 C0.01 11 -0.98 11 -2 11 C-2.268125 11.78375 -2.53625 12.5675 -2.8125 13.375 C-4 16 -4 16 -7 18 C-7.33 18.99 -7.66 19.98 -8 21 C-8.99 21.33 -9.98 21.66 -11 22 C-9.54854171 18.22204159 -7.8758825 14.61753658 -6.0625 11 C-5.55847656 9.989375 -5.05445313 8.97875 -4.53515625 7.9375 C-3.11692469 5.22373376 -1.60516202 2.60659145 0 0 Z M3 2 C3.66 2 4.32 2 5 2 C5 2.66 5 3.32 5 4 C4.01 3.67 3.02 3.34 2 3 C2.33 2.67 2.66 2.34 3 2 Z " fill="#4B4B49" transform="translate(363,181)"/>
<path d="M0 0 C0 0.66 0 1.32 0 2 C0.66 2 1.32 2 2 2 C0.7508258 5.45925163 -0.67527795 8.14693203 -3 11 C-6.80881639 9.55527654 -8.29742886 7.67396929 -10 4 C-9.67 3.01 -9.34 2.02 -9 1 C-9 1.66 -9 2.32 -9 3 C-7.88625 2.505 -6.7725 2.01 -5.625 1.5 C-2 0 -2 0 0 0 Z " fill="#4E4E4E" transform="translate(202,253)"/>
<path d="M0 0 C2 2 2 2 2.3125 5.4375 C2.61910611 9.16101798 2.61910611 9.16101798 5.5625 10.9375 C6.366875 11.288125 7.17125 11.63875 8 12 C7.67 14.31 7.34 16.62 7 19 C5.0625 18.6875 5.0625 18.6875 3 18 C2.67 17.01 2.34 16.02 2 15 C1.67 14.34 1.34 13.68 1 13 C0.34 13 -0.32 13 -1 13 C-0.67 8.71 -0.34 4.42 0 0 Z " fill="#0A0A09" transform="translate(183,224)"/>
<path d="M0 0 C3.0916909 2.52956528 3.90931332 5.22454612 5 9 C0.545 10.485 0.545 10.485 -4 12 C-4 12.66 -4 13.32 -4 14 C-3.34 14.33 -2.68 14.66 -2 15 C-2.99 15 -3.98 15 -5 15 C-8 10.77777778 -8 10.77777778 -8 8 C-7.01 7.67 -6.02 7.34 -5 7 C-5 7.99 -5 8.98 -5 10 C-4.54625 9.195625 -4.0925 8.39125 -3.625 7.5625 C-2 5 -2 5 0 4 C0 2.68 0 1.36 0 0 Z " fill="#444443" transform="translate(128,246)"/>
<path d="M0 0 C2.8053834 1.4026917 3.35891709 3.23857599 4.8125 6 C7.17529987 10.4527457 9.60441662 14.85296349 12.1171875 19.22265625 C13 21 13 21 13 23 C12.34 23 11.68 23 11 23 C10.67 23.66 10.34 24.32 10 25 C10 23.02 10 21.04 10 19 C9.34 19 8.68 19 8 19 C8 18.34 8 17.68 8 17 C7.01 17 6.02 17 5 17 C5.33 15.02 5.66 13.04 6 11 C5.34 11 4.68 11 4 11 C4 10.01 4 9.02 4 8 C2.68 7.67 1.36 7.34 0 7 C0 4.69 0 2.38 0 0 Z " fill="#606060" transform="translate(146,198)"/>
<path d="M0 0 C2.375 0.4375 2.375 0.4375 5 2 C6.07001562 4.94119871 6.57343918 7.90584243 7 11 C8.32 11.33 9.64 11.66 11 12 C11 12.99 11 13.98 11 15 C11.66 15.66 12.32 16.32 13 17 C12.625 19.625 12.625 19.625 12 22 C9.17978127 20.58989063 8.59529917 18.70669041 7.125 15.9375 C6.5990625 14.9475 6.073125 13.9575 5.53125 12.9375 C5.0259375 11.968125 4.520625 10.99875 4 10 C3.36578125 8.7934375 3.36578125 8.7934375 2.71875 7.5625 C0 2.28035714 0 2.28035714 0 0 Z " fill="#81817F" transform="translate(86,143)"/>
<path d="M0 0 C1.32 0 2.64 0 4 0 C5.125 4.75 5.125 4.75 4 7 C5.32 6.67 6.64 6.34 8 6 C8 6.66 8 7.32 8 8 C8.66 8 9.32 8 10 8 C9.25 12.75 9.25 12.75 7 15 C5.82539808 13.06730041 4.66055528 11.12866687 3.5 9.1875 C2.8503125 8.10855469 2.200625 7.02960938 1.53125 5.91796875 C0 3 0 3 0 0 Z " fill="#424240" transform="translate(123,210)"/>
<path d="M0 0 C0.99 0.33 1.98 0.66 3 1 C2.67 2.32 2.34 3.64 2 5 C3.65 4.67 5.3 4.34 7 4 C7 3.34 7 2.68 7 2 C8.32 2 9.64 2 11 2 C9.80100302 5.0831351 8.52299523 8.06279492 7 11 C6.01 11 5.02 11 4 11 C2.578125 9.35546875 2.578125 9.35546875 1.25 7.1875 C0.80140625 6.47980469 0.3528125 5.77210938 -0.109375 5.04296875 C-1 3 -1 3 0 0 Z " fill="#5B5B5B" transform="translate(298,253)"/>
<path d="M0 0 C1.98 0 3.96 0 6 0 C6.33 1.32 6.66 2.64 7 4 C6.01 4.495 6.01 4.495 5 5 C5.99 6.485 5.99 6.485 7 8 C6.34 8 5.68 8 5 8 C5.33 9.65 5.66 11.3 6 13 C4.66104368 11.33784732 3.32869858 9.67036393 2 8 C1.401875 7.319375 0.80375 6.63875 0.1875 5.9375 C-1 4 -1 4 -0.6875 1.75 C-0.460625 1.1725 -0.23375 0.595 0 0 Z " fill="#383836" transform="translate(280,298)"/>
<path d="M0 0 C2.86191302 1.43095651 3.46054572 3.43890126 4.9375 6.25 C6.4691407 9.14875734 7.98315371 11.9737363 9.75390625 14.734375 C10.37072266 15.85585937 10.37072266 15.85585937 11 17 C10.67 17.66 10.34 18.32 10 19 C8.68 18.67 7.36 18.34 6 18 C6.33 16.68 6.66 15.36 7 14 C6.01 14.33 5.02 14.66 4 15 C3 12 3 12 3 10 C2.505 9.608125 2.01 9.21625 1.5 8.8125 C-0.79457145 6.03989283 -0.19631249 3.4681874 0 0 Z " fill="#5F5F5E" transform="translate(108,210)"/>
<path d="M0 0 C0.33 0 0.66 0 1 0 C1 7.26 1 14.52 1 22 C0.01 22 -0.98 22 -2 22 C-2 16.39 -2 10.78 -2 5 C-1.67 5 -1.34 5 -1 5 C-0.67 3.35 -0.34 1.7 0 0 Z " fill="#1B1B19" transform="translate(319,100)"/>
<path d="M0 0 C0.33 2.31 0.66 4.62 1 7 C0.01 7.495 0.01 7.495 -1 8 C-1.66 7.34 -2.32 6.68 -3 6 C-3.66 6.66 -4.32 7.32 -5 8 C-5.66 8.66 -6.32 9.32 -7 10 C-7.33 8.02 -7.66 6.04 -8 4 C-2.25 0 -2.25 0 0 0 Z " fill="#0F100C" transform="translate(157,297)"/>
<path d="M0 0 C2.25426497 2.92647049 4.30021193 5.92485561 6.25 9.0625 C6.79140625 9.91972656 7.3328125 10.77695313 7.890625 11.66015625 C9 14 9 14 8 17 C5.66666667 14.66666667 3.33333333 12.33333333 1 10 C1 9.01 1 8.02 1 7 C0.34 6.01 -0.32 5.02 -1 4 C-1 1 -1 1 0 0 Z " fill="#5A5B58" transform="translate(137,181)"/>
<path d="M0 0 C0.99 0.495 0.99 0.495 2 1 C2.37890625 3.40625 2.37890625 3.40625 2.5625 6.5 C2.91025873 11.69154102 3.39710137 16.83229748 4 22 C3.34 22 2.68 22 2 22 C1.34 22.66 0.68 23.32 0 24 C0 16.08 0 8.16 0 0 Z " fill="#060604" transform="translate(344,139)"/>
<path d="M0 0 C1.29217171 0.47780303 2.58372046 0.95729106 3.875 1.4375 C4.59429687 1.70433594 5.31359375 1.97117187 6.0546875 2.24609375 C8 3 8 3 10 4 C10 4.66 10 5.32 10 6 C9.01 6.66 8.02 7.32 7 8 C7.66 8.66 8.32 9.32 9 10 C8.34 10 7.68 10 7 10 C6.67 10.66 6.34 11.32 6 12 C4.99466333 10.37829621 3.99588093 8.75252763 3 7.125 C2.443125 6.22007812 1.88625 5.31515625 1.3125 4.3828125 C0 2 0 2 0 0 Z " fill="#4E4E4D" transform="translate(125,263)"/>
<path d="M0 0 C0.99 0.99 1.98 1.98 3 3 C2.67 3.99 2.34 4.98 2 6 C1.34 6 0.68 6 0 6 C-0.103125 6.61875 -0.20625 7.2375 -0.3125 7.875 C-1 10 -1 10 -4 12 C-4 11.01 -4 10.02 -4 9 C-4.66 9 -5.32 9 -6 9 C-5.75 7.125 -5.75 7.125 -5 5 C-3.68352881 4.30062468 -2.34977849 3.63270867 -1 3 C-0.67 2.01 -0.34 1.02 0 0 Z " fill="#11110F" transform="translate(126,245)"/>
<path d="M0 0 C0.66 0.33 1.32 0.66 2 1 C1.31238981 4.65564909 -0.25449545 7.51867272 -2.0625 10.75 C-2.61035156 11.73484375 -3.15820312 12.7196875 -3.72265625 13.734375 C-4.14417969 14.48203125 -4.56570313 15.2296875 -5 16 C-6.26026798 13.47946405 -5.91874445 12.1457902 -5.5625 9.375 C-5.46066406 8.55773437 -5.35882813 7.74046875 -5.25390625 6.8984375 C-5.17011719 6.27195313 -5.08632813 5.64546875 -5 5 C-3.35 4.34 -1.7 3.68 0 3 C0 2.01 0 1.02 0 0 Z " fill="#535351" transform="translate(374,212)"/>
<path d="M0 0 C0.66 0 1.32 0 2 0 C2 7.59 2 15.18 2 23 C1.67 23 1.34 23 1 23 C0.67 17.72 0.34 12.44 0 7 C-1.32 8.32 -2.64 9.64 -4 11 C-4 7.80389448 -3.45328458 6.58282374 -2 3.8125 C-1.62875 3.09707031 -1.2575 2.38164062 -0.875 1.64453125 C-0.441875 0.83048828 -0.441875 0.83048828 0 0 Z " fill="#A6A6A6" transform="translate(412,172)"/>
<path d="M0 0 C0.99 0.99 1.98 1.98 3 3 C2 6 2 6 0.125 7.125 C-1.55705727 7.81761182 -3.27427551 8.4247585 -5 9 C-6.125 6.6875 -6.125 6.6875 -7 4 C-6.34 3.01 -5.68 2.02 -5 1 C-3.68 1.33 -2.36 1.66 -1 2 C-0.67 1.34 -0.34 0.68 0 0 Z " fill="#080906" transform="translate(168,320)"/>
<path d="M0 0 C0.99 0 1.98 0 3 0 C3.33 0.99 3.66 1.98 4 3 C4.94875 2.938125 5.8975 2.87625 6.875 2.8125 C7.90625 2.874375 8.9375 2.93625 10 3 C10.99 4.485 10.99 4.485 12 6 C11.67 6.66 11.34 7.32 11 8 C11.99 8.33 12.98 8.66 14 9 C13.01 9.495 13.01 9.495 12 10 C11.34 9.67 10.68 9.34 10 9 C10 8.34 10 7.68 10 7 C9.42765625 6.87753906 8.8553125 6.75507813 8.265625 6.62890625 C5.90046809 5.97237132 3.92793203 5.06276488 1.75 3.9375 C1.04359375 3.57527344 0.3371875 3.21304687 -0.390625 2.83984375 C-0.92171875 2.56269531 -1.4528125 2.28554688 -2 2 C-1.34 1.34 -0.68 0.68 0 0 Z " fill="#6F6F6E" transform="translate(117,331)"/>
<path d="M0 0 C0.99 0.33 1.98 0.66 3 1 C2.2575 2.11375 2.2575 2.11375 1.5 3.25 C-0.31923475 6.06318188 -0.31923475 6.06318188 0 10 C-0.99 10 -1.98 10 -3 10 C-3.66 9.34 -4.32 8.68 -5 8 C-4.8125 5.9375 -4.8125 5.9375 -4 4 C-3.01 3.67 -2.02 3.34 -1 3 C-0.67 2.01 -0.34 1.02 0 0 Z " fill="#070706" transform="translate(341,228)"/>
<path d="M0 0 C0.66666667 2.66666667 1.33333333 5.33333333 2 8 C1.01 8 0.02 8 -1 8 C-1.33 7.67 -1.66 7.34 -2 7 C-2.2475 8.11375 -2.495 9.2275 -2.75 10.375 C-4 14 -4 14 -6.125 15.4375 C-6.74375 15.623125 -7.3625 15.80875 -8 16 C-6.42986223 10.03347646 -3.24970218 5.17090975 0 0 Z " fill="#7F7F7E" transform="translate(395,204)"/>
<path d="M0 0 C0.99 0 1.98 0 3 0 C3 1.98 3 3.96 3 6 C0.69 6.66 -1.62 7.32 -4 8 C-4.66 6.68 -5.32 5.36 -6 4 C-5.01 4 -4.02 4 -3 4 C-3 3.34 -3 2.68 -3 2 C-2.01 2 -1.02 2 0 2 C0 1.34 0 0.68 0 0 Z " fill="#0A0A08" transform="translate(324,336)"/>
<path d="M0 0 C0.99 0.99 1.98 1.98 3 3 C2.34 3.66 1.68 4.32 1 5 C0.01 4.67 -0.98 4.34 -2 4 C-2.33 6.31 -2.66 8.62 -3 11 C-6 9 -6 9 -6.6875 6.375 C-6.790625 5.59125 -6.89375 4.8075 -7 4 C-4.69 2.68 -2.38 1.36 0 0 Z " fill="#0C0C0B" transform="translate(131,254)"/>
<path d="M0 0 C0.66 0 1.32 0 2 0 C2.47618831 4.65133934 1.07415149 6.99723976 -1.5 10.8125 C-2.47453125 12.27623047 -2.47453125 12.27623047 -3.46875 13.76953125 C-3.9740625 14.50558594 -4.479375 15.24164063 -5 16 C-5.33 15.34 -5.66 14.68 -6 14 C-5.39351421 12.31050386 -4.72159424 10.64363134 -4 9 C-3.67 8.01 -3.34 7.02 -3 6 C-2.01577854 3.99218823 -1.01765927 1.99107248 0 0 Z " fill="#535352" transform="translate(215,305)"/>
<path d="M0 0 C0.33 0.66 0.66 1.32 1 2 C0.67 2.66 0.34 3.32 0 4 C0.66 4 1.32 4 2 4 C1.42655063 6.86724686 1.1385485 7.8614515 -1 10 C-1.99 10.66 -2.98 11.32 -4 12 C-5 10 -5 10 -4.51171875 8.125 C-4.23972656 7.42375 -3.96773437 6.7225 -3.6875 6 C-3.42324219 5.29875 -3.15898437 4.5975 -2.88671875 3.875 C-2 2 -2 2 0 0 Z " fill="#424240" transform="translate(245,287)"/>
<path d="M0 0 C1.32 1.32 2.64 2.64 4 4 C3.34 5.32 2.68 6.64 2 8 C2.99 8 3.98 8 5 8 C4.67 9.65 4.34 11.3 4 13 C-2 5.6 -2 5.6 -2 2 C-1.34 2 -0.68 2 0 2 C0 1.34 0 0.68 0 0 Z " fill="#545453" transform="translate(147,248)"/>
<path d="M0 0 C3.48331435 3.01887244 4.79157144 5.56909529 6 10 C5.01 10 4.02 10 3 10 C3 8.35 3 6.7 3 5 C2.01 5 1.02 5 0 5 C-0.33 5.99 -0.66 6.98 -1 8 C-1.66 8 -2.32 8 -3 8 C-3.33 6.35 -3.66 4.7 -4 3 C-2.68 2.67 -1.36 2.34 0 2 C0 1.34 0 0.68 0 0 Z " fill="#525250" transform="translate(133,255)"/>
<path d="M0 0 C3.92300495 2.35380297 4.83857315 4.64464931 6 9 C4.125 9.625 4.125 9.625 2 10 C0 8 0 8 -0.1953125 6.0546875 C-0.13020833 4.03645833 -0.06510417 2.01822917 0 0 Z " fill="#333333" transform="translate(88,175)"/>
<path d="M0 0 C2.97069541 2.54631035 4.4775751 5.42230149 6 9 C5.67 9.66 5.34 10.32 5 11 C4.2575 10.54625 3.515 10.0925 2.75 9.625 C0.53069422 8.31359204 -1.67967822 7.11719197 -4 6 C-2.35 5.34 -0.7 4.68 1 4 C0.67 2.68 0.34 1.36 0 0 Z " fill="#555554" transform="translate(173,247)"/>
<path d="M0 0 C0.33 1.32 0.66 2.64 1 4 C1.99 5.485 1.99 5.485 3 7 C0.6875 8.5625 0.6875 8.5625 -2 10 C-2.99 9.67 -3.98 9.34 -5 9 C-3.35 6.03 -1.7 3.06 0 0 Z " fill="#7A7A79" transform="translate(339,306)"/>
<path d="M0 0 C3.28426103 1.05565533 4.57151556 2.61660352 6.25 5.5 C8 9 8 9 8 11 C6.125 10.8125 6.125 10.8125 4 10 C3.28272222 8.35448038 2.61674772 6.68577711 2 5 C1.01 4.34 0.02 3.68 -1 3 C-0.67 2.01 -0.34 1.02 0 0 Z " fill="#5F5F5E" transform="translate(149,286)"/>
<path d="M0 0 C0.25 2.25 0.25 2.25 0 5 C-2 7.3125 -2 7.3125 -4 9 C-3.67 7.68 -3.34 6.36 -3 5 C-6.0745356 5.7763932 -6.0745356 5.7763932 -8 8 C-8.33 6.35 -8.66 4.7 -9 3 C-8.01 3.495 -8.01 3.495 -7 4 C-6.030625 3.34 -5.06125 2.68 -4.0625 2 C-1 0 -1 0 0 0 Z " fill="#424240" transform="translate(233,280)"/>
<path d="M0 0 C1.32 0 2.64 0 4 0 C2.77472971 4.05281712 1.30119506 7.44360764 -1 11 C-2.30048841 8.39902318 -2.56471422 5.86044938 -3 3 C-2.34 3 -1.68 3 -1 3 C-0.67 2.01 -0.34 1.02 0 0 Z " fill="#545453" transform="translate(343,266)"/>
<path d="M0 0 C-0.4794463 4.21912747 -1.16625119 6.79663178 -4 10 C-4.12375 9.236875 -4.2475 8.47375 -4.375 7.6875 C-4.88102792 4.79732864 -4.88102792 4.79732864 -7 2 C-4.35261084 0.5393715 -3.10551666 0 0 0 Z " fill="#40403F" transform="translate(390,236)"/>
<path d="M0 0 C3 0 3 0 6 1 C5.67 2.98 5.34 4.96 5 7 C3.68 7.33 2.36 7.66 1 8 C-0.35439668 5.29120665 -0.06501451 2.99066732 0 0 Z " fill="#0B0B09" transform="translate(139,281)"/>
<path d="M0 0 C0.99 0.99 1.98 1.98 3 3 C2.34 3.66 1.68 4.32 1 5 C1.32041397 7.60280568 1.32041397 7.60280568 2 10 C-0.5 8.1875 -0.5 8.1875 -3 6 C-3 3 -3 3 -1.5 1.3125 C-0.7575 0.6628125 -0.7575 0.6628125 0 0 Z " fill="#535350" transform="translate(253,251)"/>
<path d="M0 0 C2.14909962 2.76854598 4.01778828 5.57834526 5.75 8.625 C6.19859375 9.40101563 6.6471875 10.17703125 7.109375 10.9765625 C7.40328125 11.64429688 7.6971875 12.31203125 8 13 C7.67 13.66 7.34 14.32 7 15 C5 13.625 5 13.625 3 12 C3 11.34 3 10.68 3 10 C2.34 9.67 1.68 9.34 1 9 C0.5859375 6.93359375 0.5859375 6.93359375 0.375 4.4375 C0.30023438 3.61121094 0.22546875 2.78492188 0.1484375 1.93359375 C0.09945312 1.29550781 0.05046875 0.65742188 0 0 Z " fill="#787877" transform="translate(129,166)"/>
<path d="M0 0 C7.34177215 -0.48945148 7.34177215 -0.48945148 10.4375 1.8125 C12 4 12 4 13 7 C7.95806174 5.47569308 3.76143005 3.76143005 0 0 Z M8 2 C8 2.66 8 3.32 8 4 C8.66 3.67 9.32 3.34 10 3 C9.34 2.67 8.68 2.34 8 2 Z " fill="#747472" transform="translate(89,318)"/>
<path d="M0 0 C0.33 0.99 0.66 1.98 1 3 C-1.8125 5.0625 -1.8125 5.0625 -5 7 C-5.99 6.67 -6.98 6.34 -8 6 C-6.98565881 3.46414701 -6.34981128 2.21863205 -4 0.75 C-2 0 -2 0 0 0 Z " fill="#050505" transform="translate(371,312)"/>
<path d="M0 0 C1.32 0 2.64 0 4 0 C4 2.31 4 4.62 4 7 C4.99 6.67 5.98 6.34 7 6 C7.33 6.99 7.66 7.98 8 9 C7.01 10.485 7.01 10.485 6 12 C5.67 10.68 5.34 9.36 5 8 C4.34 8 3.68 8 3 8 C2.67 6.35 2.34 4.7 2 3 C1.34 3 0.68 3 0 3 C0 2.01 0 1.02 0 0 Z " fill="#686866" transform="translate(156,270)"/>
<path d="M0 0 C0.33 0 0.66 0 1 0 C1 8.25 1 16.5 1 25 C0.34 25.33 -0.32 25.66 -1 26 C-1.33 25.01 -1.66 24.02 -2 23 C-1.67 22.67 -1.34 22.34 -1 22 C-0.84285346 20.36743242 -0.74914586 18.72864662 -0.68359375 17.08984375 C-0.62075195 15.60581055 -0.62075195 15.60581055 -0.55664062 14.09179688 C-0.49766602 12.53041992 -0.49766602 12.53041992 -0.4375 10.9375 C-0.39431641 9.89271484 -0.35113281 8.84792969 -0.30664062 7.77148438 C-0.20018775 5.18113116 -0.0981724 2.59067814 0 0 Z " fill="#323230" transform="translate(319,212)"/>
<path d="M0 0 C2 2 2 2 2.0625 4.5 C2.041875 5.325 2.02125 6.15 2 7 C2.33 7.66 2.66 8.32 3 9 C2.83219837 11.69565202 2.38844355 14.32405554 2 17 C1.34 17 0.68 17 0 17 C0 11.39 0 5.78 0 0 Z " fill="#050504" transform="translate(88,183)"/>
<path d="M0 0 C3.99996286 1.33332095 4.83782337 3.4957827 7 7 C6.67 7.66 6.34 8.32 6 9 C5.01 9 4.02 9 3 9 C3 7.68 3 6.36 3 5 C1.68 4.67 0.36 4.34 -1 4 C-0.67 2.68 -0.34 1.36 0 0 Z " fill="#525251" transform="translate(259,295)"/>
<path d="M0 0 C0.33 0.99 0.66 1.98 1 3 C2.65 3.33 4.3 3.66 6 4 C5.6875 5.9375 5.6875 5.9375 5 8 C4.01 8.33 3.02 8.66 2 9 C0.4375 6.1875 0.4375 6.1875 -1 3 C-0.67 2.01 -0.34 1.02 0 0 Z " fill="#515150" transform="translate(168,289)"/>
<path d="M0 0 C0.66 0.33 1.32 0.66 2 1 C1.67 2.98 1.34 4.96 1 7 C-0.65 7.33 -2.3 7.66 -4 8 C-3.50168276 4.31245243 -2.89932357 2.39509338 0 0 Z " fill="#272726" transform="translate(234,274)"/>
<path d="M0 0 C0.66 0 1.32 0 2 0 C2.8638129 1.45264038 3.71580454 2.9123163 4.5625 4.375 C5.27599609 5.59316406 5.27599609 5.59316406 6.00390625 6.8359375 C6.33261719 7.55007813 6.66132813 8.26421875 7 9 C6.67 9.66 6.34 10.32 6 11 C5.01 10.34 4.02 9.68 3 9 C3 8.01 3 7.02 3 6 C1.68 5.34 0.36 4.68 -1 4 C-0.67 2.68 -0.34 1.36 0 0 Z " fill="#5E5E5D" transform="translate(271,313)"/>
<path d="M0 0 C0.66 0.33 1.32 0.66 2 1 C3 4 3 4 2 7 C-0.0625 7.6875 -0.0625 7.6875 -2 8 C-2.33 7.01 -2.66 6.02 -3 5 C-1.5625 2.3125 -1.5625 2.3125 0 0 Z " fill="#070705" transform="translate(373,247)"/>
<path d="M0 0 C1.65 0 3.3 0 5 0 C4.67 2.31 4.34 4.62 4 7 C3.34 7 2.68 7 2 7 C2 6.34 2 5.68 2 5 C1.34 5 0.68 5 0 5 C0 3.35 0 1.7 0 0 Z " fill="#090908" transform="translate(259,337)"/>
<path d="M0 0 C0.66 0.33 1.32 0.66 2 1 C1.39816251 3.02045442 0.72693904 5.02111039 0 7 C-0.99 7.495 -0.99 7.495 -2 8 C-3.0625 5.625 -3.0625 5.625 -4 3 C-3 1 -3 1 0 0 Z " fill="#383837" transform="translate(392,180)"/>
<path d="M0 0 C0.66 0.33 1.32 0.66 2 1 C0.25 5.875 0.25 5.875 -2 7 C-2.33 7.99 -2.66 8.98 -3 10 C-3.99 9.34 -4.98 8.68 -6 8 C-5.67 7.01 -5.34 6.02 -5 5 C-3.66666667 4.33333333 -2.33333333 3.66666667 -1 3 C-0.67 2.01 -0.34 1.02 0 0 Z " fill="#050504" transform="translate(326,297)"/>
<path d="M0 0 C5.57142857 5.14285714 5.57142857 5.14285714 6 9 C5.01 9 4.02 9 3 9 C3 8.34 3 7.68 3 7 C2.34 7 1.68 7 1 7 C0.67 7.66 0.34 8.32 0 9 C0 8.01 0 7.02 0 6 C0.66 6 1.32 6 2 6 C1.34 4.02 0.68 2.04 0 0 Z " fill="#676765" transform="translate(253,284)"/>
<path d="M0 0 C1 2 1 2 1 6 C-0.875 8.75 -0.875 8.75 -3 11 C-3.66 11 -4.32 11 -5 11 C-4.32902328 6.80639551 -2.1441606 3.59665648 0 0 Z " fill="#60605F" transform="translate(365,259)"/>
<path d="M0 0 C1.65 1.65 3.3 3.3 5 5 C4 7 4 7 3 8 C1.68 7.34 0.36 6.68 -1 6 C-0.67 4.02 -0.34 2.04 0 0 Z " fill="#4F4F4D" transform="translate(282,256)"/>
<path d="M0 0 C-1.65 1.98 -3.3 3.96 -5 6 C-5.66 5.67 -6.32 5.34 -7 5 C-7.625 2.4375 -7.625 2.4375 -8 0 C-4.71023192 -1.09658936 -3.28696233 -0.79953138 0 0 Z " fill="#333331" transform="translate(125,247)"/>
<path d="M0 0 C2.65183353 1.32591677 3.25136473 2.86562451 4.6875 5.4375 C5.14511719 6.24058594 5.60273438 7.04367188 6.07421875 7.87109375 C6.37972656 8.57363281 6.68523437 9.27617187 7 10 C6.67 10.66 6.34 11.32 6 12 C5.34 11.67 4.68 11.34 4 11 C4 10.01 4 9.02 4 8 C2.68 7.67 1.36 7.34 0 7 C0 4.69 0 2.38 0 0 Z " fill="#797977" transform="translate(146,198)"/>
<path d="M0 0 C1.98 0 3.96 0 6 0 C5.25 4.75 5.25 4.75 3 7 C2.67 6.01 2.34 5.02 2 4 C1.34 3.34 0.68 2.68 0 2 C0 1.34 0 0.68 0 0 Z " fill="#353534" transform="translate(410,139)"/>
<path d="M0 0 C2.31 0 4.62 0 7 0 C5.81924981 2.36150039 4.87535361 2.87241994 2.625 4.1875 C2.01914062 4.55230469 1.41328125 4.91710937 0.7890625 5.29296875 C-1 6 -1 6 -4 5 C-3.525625 4.54625 -3.05125 4.0925 -2.5625 3.625 C-0.90972192 2.06741796 -0.90972192 2.06741796 0 0 Z " fill="#757574" transform="translate(362,341)"/>
<path d="M0 0 C0.33 0 0.66 0 1 0 C1.33 2.64 1.66 5.28 2 8 C0.35 8.33 -1.3 8.66 -3 9 C-2.44271087 5.65626525 -1.64826111 2.96687001 0 0 Z " fill="#494948" transform="translate(354,278)"/>
<path d="M0 0 C1 3 1 3 0 6 C-0.33 6.33 -0.66 6.66 -1 7 C-1.99 8.485 -1.99 8.485 -3 10 C-3.99 10.33 -4.98 10.66 -6 11 C-4.54955729 6.89041233 -2.48889248 3.56741255 0 0 Z " fill="#7F7F7E" transform="translate(218,256)"/>
<path d="M0 0 C0.144375 0.598125 0.28875 1.19625 0.4375 1.8125 C0.8872439 3.56150404 1.42892341 5.28677023 2 7 C1.01 8.485 1.01 8.485 0 10 C-0.66 10 -1.32 10 -2 10 C-2.6875 6.6875 -2.6875 6.6875 -3 3 C-1.5625 1.0625 -1.5625 1.0625 0 0 Z " fill="#050503" transform="translate(380,245)"/>
<path d="M0 0 C1.32 0 2.64 0 4 0 C4.625 2.3125 4.625 2.3125 5 5 C4.01 6.485 4.01 6.485 3 8 C0 3.375 0 3.375 0 0 Z " fill="#545454" transform="translate(123,210)"/>
<path d="M0 0 C0.99 0.33 1.98 0.66 3 1 C2.67 4.63 2.34 8.26 2 12 C1.67 12 1.34 12 1 12 C0.01751476 7.9472484 -0.08159574 4.16138263 0 0 Z " fill="#070705" transform="translate(182,206)"/>
<path d="M0 0 C2.62187494 1.04874998 3.79371361 1.64931313 5.25 4.125 C5.4975 4.74375 5.745 5.3625 6 6 C4.35 6.33 2.7 6.66 1 7 C0.67 4.69 0.34 2.38 0 0 Z " fill="#2C2C2B" transform="translate(144,279)"/>
<path d="M0 0 C0.66 0.33 1.32 0.66 2 1 C2 1.66 2 2.32 2 3 C2.99 2.01 3.98 1.02 5 0 C5.99 0.33 6.98 0.66 8 1 C6.25 3.0625 6.25 3.0625 4 5 C1.8125 4.875 1.8125 4.875 0 4 C-0.33 3.34 -0.66 2.68 -1 2 C-0.67 1.34 -0.34 0.68 0 0 Z " fill="#161614" transform="translate(128,260)"/>
<path d="M0 0 C0.33 0 0.66 0 1 0 C1.125 5.75 1.125 5.75 0 8 C-1.32 8 -2.64 8 -4 8 C-3.34 6.02 -2.68 4.04 -2 2 C-1.34 2 -0.68 2 0 2 C0 1.34 0 0.68 0 0 Z " fill="#40403E" transform="translate(373,164)"/>
<path d="M0 0 C4.34464536 0.60825035 8.67551867 1.26167392 13 2 C13 2.33 13 2.66 13 3 C6.565 3.495 6.565 3.495 0 4 C0 2.68 0 1.36 0 0 Z " fill="#0A0A08" transform="translate(238,99)"/>
<path d="M0 0 C4.95 0.99 4.95 0.99 10 2 C9.67 2.99 9.34 3.98 9 5 C4.89198233 3.81323934 3.10551666 3.10551666 0 0 Z " fill="#6D6D6C" transform="translate(132,341)"/>
<path d="M0 0 C2.99324263 1.0975223 3.84610901 1.67682892 5.25 4.625 C5.4975 5.40875 5.745 6.1925 6 7 C4.68 7 3.36 7 2 7 C0 4 0 4 0 0 Z " fill="#474744" transform="translate(283,334)"/>
<path d="M0 0 C1.32 0.66 2.64 1.32 4 2 C3.01 3.98 2.02 5.96 1 8 C0.67 7.01 0.34 6.02 0 5 C-0.66 5 -1.32 5 -2 5 C-1.34 3.35 -0.68 1.7 0 0 Z " fill="#444443" transform="translate(199,329)"/>
<path d="M0 0 C0.66 0.33 1.32 0.66 2 1 C1.67 2.65 1.34 4.3 1 6 C0.01 6.33 -0.98 6.66 -2 7 C-2 7.66 -2 8.32 -2 9 C-2.66 9 -3.32 9 -4 9 C-2.80100302 5.9168649 -1.52299523 2.93720508 0 0 Z " fill="#777776" transform="translate(235,302)"/>
<path d="M0 0 C0.66 0.33 1.32 0.66 2 1 C0.515 3.475 0.515 3.475 -1 6 C-0.34 6.33 0.32 6.66 1 7 C0.34 7 -0.32 7 -1 7 C-1.33 7.66 -1.66 8.32 -2 9 C-2 8.34 -2 7.68 -2 7 C-2.66 7 -3.32 7 -4 7 C-2.92598892 4.08482708 -2.22189824 2.22189824 0 0 Z " fill="#070706" transform="translate(249,284)"/>
<path d="M0 0 C1.5 1.375 1.5 1.375 3 3 C3 3.66 3 4.32 3 5 C1.824375 5.4640625 1.824375 5.4640625 0.625 5.9375 C-1.92330128 6.92875038 -1.92330128 6.92875038 -4 8 C-2.87548273 5.0280615 -1.77706209 2.66559313 0 0 Z " fill="#707070" transform="translate(250,279)"/>
<path d="M0 0 C0 3.23655184 -0.6550847 4.78752639 -2 7.6875 C-2.37125 8.49574219 -2.7425 9.30398437 -3.125 10.13671875 C-3.41375 10.75160156 -3.7025 11.36648437 -4 12 C-4.66 12 -5.32 12 -6 12 C-4.68139111 7.38486888 -2.78644563 3.90102388 0 0 Z " fill="#848484" transform="translate(386,221)"/>
<path d="M0 0 C0.99 0.66 1.98 1.32 3 2 C2.360625 2.598125 1.72125 3.19625 1.0625 3.8125 C-1.20310389 5.90810337 -1.20310389 5.90810337 -2 9 C-2.66 9 -3.32 9 -4 9 C-2.80100302 5.9168649 -1.52299523 2.93720508 0 0 Z M3 0 C5 1 5 1 5 1 Z " fill="#6C6C6B" transform="translate(338,227)"/>
<path d="M0 0 C0.33 0.66 0.66 1.32 1 2 C-0.55599625 6.50419967 -1.81168455 9.5447806 -6 12 C-4.68139111 7.38486888 -2.78644563 3.90102388 0 0 Z " fill="#8D8D8D" transform="translate(406,184)"/>
<path d="M0 0 C2.4375 0.6875 2.4375 0.6875 5 2 C5.8125 4.625 5.8125 4.625 6 7 C5.01 7.33 4.02 7.66 3 8 C0 2.25 0 2.25 0 0 Z " fill="#535351" transform="translate(86,143)"/>
<path d="M0 0 C3.63 0 7.26 0 11 0 C10.34 1.32 9.68 2.64 9 4 C8.01 3.67 7.02 3.34 6 3 C6 2.67 6 2.34 6 2 C3.03 1.505 3.03 1.505 0 1 C0 0.67 0 0.34 0 0 Z " fill="#0C0C0A" transform="translate(94,139)"/>
<path d="M0 0 C3.3125 0.1875 3.3125 0.1875 7 1 C8.9375 3.5625 8.9375 3.5625 10 6 C5.56909529 4.79157144 3.01887244 3.48331435 0 0 Z " fill="#7E7E7E" transform="translate(103,325)"/>
<path d="M0 0 C0.66 1.32 1.32 2.64 2 4 C-0.475 5.485 -0.475 5.485 -3 7 C-3.33 6.34 -3.66 5.68 -4 5 C-2.68 3.35 -1.36 1.7 0 0 Z " fill="#0A0A08" transform="translate(325,255)"/>
<path d="M0 0 C1.33332095 2.6666419 0.67102033 4.16680303 0 7 C-0.99 7 -1.98 7 -3 7 C-1.125 1.125 -1.125 1.125 0 0 Z M3 2 C3.66 2 4.32 2 5 2 C5 2.66 5 3.32 5 4 C4.01 3.67 3.02 3.34 2 3 C2.33 2.67 2.66 2.34 3 2 Z " fill="#5F5F5D" transform="translate(363,181)"/>
<path d="M0 0 C2 1 4 2 6 3 C5.67 4.65 5.34 6.3 5 8 C2.74754119 5.31158141 1.11786042 3.35358125 0 0 Z " fill="#717171" transform="translate(266,353)"/>
<path d="M0 0 C0.33 0.66 0.66 1.32 1 2 C1.66 2.33 2.32 2.66 3 3 C2.34 3 1.68 3 1 3 C0.67 3.99 0.34 4.98 0 6 C-2.0625 7.1875 -2.0625 7.1875 -4 8 C-3.34 6.02 -2.68 4.04 -2 2 C-1.34 2 -0.68 2 0 2 C0 1.34 0 0.68 0 0 Z " fill="#646461" transform="translate(212,340)"/>
<path d="M0 0 C0.99 0.33 1.98 0.66 3 1 C2.67 2.98 2.34 4.96 2 7 C1.01 6.34 0.02 5.68 -1 5 C-0.67 3.35 -0.34 1.7 0 0 Z " fill="#090909" transform="translate(188,321)"/>
<path d="M0 0 C0.99 0.33 1.98 0.66 3 1 C3.6875 3.0625 3.6875 3.0625 4 5 C2.35 5 0.7 5 -1 5 C-0.67 3.35 -0.34 1.7 0 0 Z " fill="#080807" transform="translate(170,246)"/>
<path d="M0 0 C3 2 3 2 3.51171875 4.1640625 C3.56972656 4.97617188 3.62773438 5.78828125 3.6875 6.625 C3.75324219 7.44226563 3.81898437 8.25953125 3.88671875 9.1015625 C3.92410156 9.72804687 3.96148437 10.35453125 4 11 C2.5078125 9.65625 2.5078125 9.65625 1 8 C0.875 5.5 0.875 5.5 1 3 C0.67 2.01 0.34 1.02 0 0 Z " fill="#464645" transform="translate(94,185)"/>
<path d="M0 0 C2.625 -0.1875 2.625 -0.1875 5 0 C5.33 0.99 5.66 1.98 6 3 C3.36 3 0.72 3 -2 3 C-1.34 2.01 -0.68 1.02 0 0 Z " fill="#070706" transform="translate(351,160)"/>
<path d="M0 0 C3 0 3 0 6 2 C3.625 3.5625 3.625 3.5625 1 5 C0.34 4.67 -0.32 4.34 -1 4 C-0.67 2.68 -0.34 1.36 0 0 Z " fill="#696968" transform="translate(257,398)"/>
<path d="M0 0 C2.125 0.9375 2.125 0.9375 4 2 C3.34 3.65 2.68 5.3 2 7 C0.49440461 5.03617993 -0.89131683 3.21736634 -2 1 C-1.34 0.67 -0.68 0.34 0 0 Z " fill="#454543" transform="translate(229,354)"/>
<path d="M0 0 C0.33 0.99 0.66 1.98 1 3 C1.66 3.33 2.32 3.66 3 4 C2.34 4.66 1.68 5.32 1 6 C-0.32 6 -1.64 6 -3 6 C-3 5.34 -3 4.68 -3 4 C-2.34 4 -1.68 4 -1 4 C-0.67 2.68 -0.34 1.36 0 0 Z " fill="#4B4B4B" transform="translate(227,316)"/>
<path d="M0 0 C1.0625 1.875 1.0625 1.875 2 4 C1.67 4.66 1.34 5.32 1 6 C0.34 6 -0.32 6 -1 6 C-1.33 6.66 -1.66 7.32 -2 8 C-2.6875 6.25 -2.6875 6.25 -3 4 C-1.5625 1.75 -1.5625 1.75 0 0 Z " fill="#080806" transform="translate(221,254)"/>
<path d="M0 0 C1.65 0 3.3 0 5 0 C4.39816251 2.02045442 3.72693904 4.02111039 3 6 C2.01 6.495 2.01 6.495 1 7 C0.67 4.69 0.34 2.38 0 0 Z " fill="#636362" transform="translate(380,247)"/>
<path d="M0 0 C2.50037734 2.17424117 3.43628586 3.73045798 4 7 C2.68 7.33 1.36 7.66 0 8 C-0.33 7.01 -0.66 6.02 -1 5 C-0.34 5 0.32 5 1 5 C0.67 3.35 0.34 1.7 0 0 Z " fill="#696968" transform="translate(122,235)"/>
<path d="M0 0 C0.66666667 2.66666667 1.33333333 5.33333333 2 8 C1.01 8 0.02 8 -1 8 C-1.625 5.6875 -1.625 5.6875 -2 3 C-1.34 2.01 -0.68 1.02 0 0 Z " fill="#585857" transform="translate(395,204)"/>
<path d="M0 0 C2.15377564 2.62198774 3.40072174 4.64404172 4 8 C1 7 1 7 -1 4 C-1 1 -1 1 0 0 Z " fill="#636362" transform="translate(137,181)"/>
<path d="M0 0 C0.66 0.99 1.32 1.98 2 3 C-0.625 7.875 -0.625 7.875 -4 9 C-2.80100302 5.9168649 -1.52299523 2.93720508 0 0 Z " fill="#737372" transform="translate(368,172)"/>
<path d="M0 0 C1.98 0.99 1.98 0.99 4 2 C3.67 3.65 3.34 5.3 3 7 C2.34 6.67 1.68 6.34 1 6 C0.375 2.9375 0.375 2.9375 0 0 Z " fill="#555553" transform="translate(95,158)"/>
<path d="M0 0 C0.99 0.33 1.98 0.66 3 1 C2.34 2.98 1.68 4.96 1 7 C0.01 5.68 -0.98 4.36 -2 3 C-1.34 2.01 -0.68 1.02 0 0 Z " fill="#555554" transform="translate(203,324)"/>
<path d="M0 0 C0.66 0.66 1.32 1.32 2 2 C1.625 4.125 1.625 4.125 1 6 C0.01 5.67 -0.98 5.34 -2 5 C-1.125 1.125 -1.125 1.125 0 0 Z " fill="#070706" transform="translate(357,276)"/>
<path d="M0 0 C0.66 0.33 1.32 0.66 2 1 C2.625 3.5625 2.625 3.5625 3 6 C0.525 5.01 0.525 5.01 -2 4 C-1.34 2.68 -0.68 1.36 0 0 Z " fill="#555553" transform="translate(184,267)"/>
<path d="M0 0 C0.33 0.66 0.66 1.32 1 2 C1.66 2 2.32 2 3 2 C2.34 3.65 1.68 5.3 1 7 C-2 3.25 -2 3.25 -2 1 C-1.34 0.67 -0.68 0.34 0 0 Z " fill="#4F4F4E" transform="translate(241,263)"/>
<path d="M0 0 C1.98 0.66 3.96 1.32 6 2 C5.01 3.32 4.02 4.64 3 6 C0 2.25 0 2.25 0 0 Z " fill="#676764" transform="translate(293,248)"/>
<path d="M0 0 C0.66 0 1.32 0 2 0 C2 0.66 2 1.32 2 2 C1.34 2 0.68 2 0 2 C0 1.34 0 0.68 0 0 Z M-1 2 C-0.01 2.33 0.98 2.66 2 3 C1.34 4.98 0.68 6.96 0 9 C-1.0625 7.1875 -1.0625 7.1875 -2 5 C-1.67 4.01 -1.34 3.02 -1 2 Z " fill="#4A4A48" transform="translate(356,243)"/>
<path d="M0 0 C0.75 1.75 0.75 1.75 1 4 C-0.9375 6.25 -0.9375 6.25 -3 8 C-3 4.42424104 -1.91159393 2.94704065 0 0 Z " fill="#828281" transform="translate(348,209)"/>
<path d="M0 0 C0.99 0.33 1.98 0.66 3 1 C2.34 2.65 1.68 4.3 1 6 C0.01 5.01 -0.98 4.02 -2 3 C-1.34 2.01 -0.68 1.02 0 0 Z " fill="#464646" transform="translate(385,191)"/>
</svg>
